<?xml version="1.0" encoding="utf-8"?>
<!-- Generator: Adobe Illustrator 23.0.1, SVG Export Plug-In . SVG Version: 6.00 Build 0)  -->
<svg version="1.1" xmlns="http://www.w3.org/2000/svg" xmlns:xlink="http://www.w3.org/1999/xlink" x="0px" y="0px"
	 viewBox="0 0 200 200" style="enable-background:new 0 0 200 200;" xml:space="preserve">
<style type="text/css">
	.st0{fill:#FFFFFF;}
	.st1{fill:url(#SVGID_1_);}
	.st2{fill:#B8D5E0;stroke:#686868;stroke-miterlimit:10;}
	.st3{fill:#5895D6;stroke:#00536D;stroke-width:0.5;stroke-miterlimit:10;}
</style>
<g id="Layer_2">
	<g>
		<g>
			<g>
				<path class="st0" d="M124.4,84.08c-0.32,0.05-0.65,0.06-0.97,0c-1.08-0.2-1.63-1-1.22-1.8l16.83-33.12
					c0.41-0.8,1.61-1.29,2.69-1.09c1.08,0.2,1.63,1,1.22,1.8l-16.83,33.12C125.84,83.54,125.16,83.95,124.4,84.08z"/>
			</g>
			<g>
				<path class="st0" d="M136.95,81.51c-0.57,0-1.13-0.16-1.55-0.47c-0.79-0.6-0.73-1.53,0.13-2.07l11.71-7.5
					c0.86-0.55,2.19-0.51,2.97,0.09c0.79,0.6,0.73,1.53-0.13,2.07l-11.71,7.5C137.97,81.38,137.46,81.51,136.95,81.51z"/>
			</g>
			<g>
				<path class="st0" d="M151.08,94.88c-0.73,0.2-1.52,0.11-2.01-0.28c-0.7-0.56-0.55-1.52,0.35-2.15l33.89-23.69
					c0.9-0.63,2.2-0.69,2.9-0.13c0.7,0.56,0.55,1.52-0.35,2.15l-33.89,23.69C151.7,94.66,151.4,94.8,151.08,94.88z"/>
			</g>
			<g>
				<path class="st0" d="M166.73,105.05c-1.07-0.04-1.96-0.64-2.04-1.41c-0.08-0.81,0.79-1.5,1.95-1.53l15.84-0.45
					c1.19-0.03,2.17,0.6,2.25,1.41c0.08,0.81-0.79,1.5-1.95,1.53l-15.84,0.45C166.86,105.06,166.79,105.06,166.73,105.05z"/>
			</g>
			<g>
				<path class="st0" d="M184.03,138.34c-0.32-0.06-0.63-0.18-0.91-0.34l-29.77-17.7c-0.95-0.56-1.18-1.51-0.52-2.11
					c0.66-0.61,1.96-0.64,2.9-0.08l29.77,17.7c0.95,0.56,1.18,1.51,0.52,2.11C185.56,138.35,184.78,138.49,184.03,138.34z"/>
			</g>
			<g>
				<path class="st0" d="M189.95,104.65c-0.99,0-1.88-0.49-2.07-1.2c-0.21-0.8,0.54-1.56,1.69-1.71l1.08-0.14
					c1.15-0.16,2.24,0.38,2.45,1.18c0.21,0.8-0.54,1.56-1.69,1.71l-1.08,0.14C190.2,104.64,190.07,104.65,189.95,104.65z"/>
			</g>
			<g>
				<path class="st0" d="M154.82,70.81c-0.58,0.07-1.18-0.03-1.63-0.3c-0.84-0.51-0.86-1.44-0.06-2.08l1.45-1.15
					c0.8-0.64,2.13-0.74,2.97-0.23c0.84,0.51,0.86,1.44,0.06,2.08l-1.45,1.15C155.78,70.57,155.31,70.75,154.82,70.81z"/>
			</g>
			<g>
				<path class="st0" d="M58.5,157.72c-0.32,0-0.65-0.05-0.96-0.16c-1.04-0.37-1.44-1.25-0.91-1.98l22.02-29.92
					c0.53-0.72,1.81-1.01,2.83-0.64c1.04,0.37,1.44,1.25,0.91,1.98l-22.02,29.92C60,157.43,59.26,157.72,58.5,157.72z"/>
			</g>
			<g>
				<path class="st0" d="M95.98,148.23c-0.07,0-0.15,0-0.22-0.01c-1.16-0.08-1.99-0.81-1.87-1.61l2.19-14.47
					c0.12-0.81,1.12-1.41,2.31-1.3c1.16,0.08,1.99,0.81,1.87,1.61l-2.19,14.47C97.96,147.67,97.05,148.23,95.98,148.23z"/>
			</g>
			<g>
				<path class="st0" d="M125.56,154.25c-0.98,0-1.85-0.47-2.06-1.17l-8.02-26.75c-0.24-0.79,0.49-1.57,1.63-1.74
					c1.15-0.18,2.25,0.34,2.49,1.14l8.02,26.75c0.24,0.79-0.49,1.57-1.63,1.74C125.85,154.24,125.7,154.25,125.56,154.25z"/>
			</g>
			<g>
				<path class="st0" d="M151.74,146.42c-0.73,0-1.43-0.26-1.83-0.73l-7.95-9.6c-0.58-0.7-0.24-1.6,0.77-2.01
					c1-0.41,2.29-0.17,2.88,0.54l7.95,9.6c0.58,0.7,0.24,1.6-0.77,2.01C152.46,146.35,152.1,146.42,151.74,146.42z"/>
			</g>
			<g>
				<path class="st0" d="M158.66,154.99c-0.8,0-1.56-0.32-1.91-0.85l-0.46-0.7c-0.49-0.74-0.03-1.61,1.03-1.95
					c1.05-0.34,2.31-0.02,2.79,0.72l0.46,0.7c0.49,0.74,0.03,1.61-1.03,1.95C159.25,154.95,158.95,154.99,158.66,154.99z"/>
			</g>
			<g>
				<path class="st0" d="M94.66,158c-0.07,0-0.13,0-0.2-0.01c-1.16-0.08-2.01-0.79-1.9-1.6l0.2-1.46c0.11-0.81,1.16-1.4,2.29-1.33
					c1.16,0.08,2.01,0.79,1.9,1.6l-0.2,1.46C96.65,157.43,95.73,158,94.66,158z"/>
			</g>
		</g>
		<g>
			<g>
				<path class="st0" d="M98.9,72.61c-0.08,0-0.17,0-0.26-0.01c-1.16-0.1-1.98-0.83-1.84-1.63l1.91-11c0.14-0.8,1.19-1.38,2.34-1.28
					c1.16,0.1,1.98,0.83,1.84,1.63l-1.91,11C100.86,72.07,99.95,72.61,98.9,72.61z"/>
			</g>
			<g>
				<path class="st0" d="M77.05,80.18c-1.03,0-1.93-0.53-2.08-1.26l-6.26-30.24c-0.17-0.8,0.63-1.55,1.78-1.66
					c1.15-0.13,2.22,0.44,2.38,1.24l6.26,30.24c0.17,0.8-0.63,1.55-1.78,1.66C77.25,80.18,77.15,80.18,77.05,80.18z"/>
			</g>
			<g>
				<path class="st0" d="M53.29,76.34c-0.73,0-1.44-0.26-1.82-0.73l-7.96-9.59c-0.58-0.7-0.24-1.6,0.77-2.01
					c1.01-0.41,2.3-0.17,2.88,0.54l7.96,9.59c0.58,0.7,0.24,1.6-0.77,2.01C54.01,76.27,53.64,76.34,53.29,76.34z"/>
			</g>
			<g>
				<path class="st0" d="M30.9,83.16c-0.25-0.05-0.5-0.14-0.72-0.29L6.88,67.32c-0.74-0.49-0.9-1.38-0.37-1.99
					c0.53-0.61,1.57-0.7,2.31-0.2l23.29,15.56c0.74,0.49,0.9,1.38,0.37,1.99C32.11,83.1,31.49,83.27,30.9,83.16z"/>
			</g>
			<g>
				<path class="st0" d="M40.46,58.95c-0.79,0-1.55-0.31-1.91-0.85l-0.46-0.7c-0.49-0.74-0.03-1.61,1.02-1.95
					c1.06-0.34,2.31-0.02,2.8,0.71l0.46,0.7c0.49,0.74,0.03,1.61-1.02,1.95C41.06,58.91,40.76,58.95,40.46,58.95z"/>
			</g>
			<g>
				<path class="st0" d="M101.76,53.47c-0.07,0-0.14,0-0.2-0.01c-1.16-0.08-2-0.79-1.89-1.6l0.2-1.46c0.11-0.81,1.15-1.41,2.3-1.32
					c1.16,0.08,2,0.79,1.89,1.6l-0.2,1.46C103.75,52.91,102.84,53.47,101.76,53.47z"/>
			</g>
			<g>
				<path class="st0" d="M41.95,138.19c-0.57,0.09-1.17,0.02-1.63-0.23c-0.86-0.47-0.94-1.4-0.17-2.07l13.8-12.09
					c0.77-0.67,2.09-0.84,2.95-0.37c0.86,0.47,0.94,1.4,0.17,2.07l-13.8,12.09C42.91,137.91,42.44,138.11,41.95,138.19z"/>
			</g>
			<g>
				<path class="st0" d="M11.43,139.1c-0.76,0.27-1.6,0.21-2.11-0.19c-0.69-0.55-0.52-1.52,0.38-2.18l30.23-22.22
					c0.89-0.66,2.18-0.75,2.87-0.2c0.69,0.55,0.52,1.52-0.38,2.18l-30.23,22.22C11.96,138.88,11.7,139.01,11.43,139.1z"/>
			</g>
			<g>
				<path class="st0" d="M14.81,98.62c-0.85,0-1.57-0.57-1.66-1.32c-0.09-0.81,0.58-1.53,1.5-1.6l12.52-1.08
					c0.93-0.07,1.73,0.51,1.82,1.32c0.09,0.81-0.58,1.53-1.5,1.6l-12.52,1.08C14.92,98.61,14.86,98.62,14.81,98.62z"/>
			</g>
			<g>
				<path class="st0" d="M3.71,99.71c-0.78,0-1.48-0.49-1.63-1.19C1.9,97.73,2.5,96.96,3.4,96.8l0.85-0.14
					c0.9-0.17,1.78,0.37,1.95,1.16c0.18,0.8-0.42,1.57-1.32,1.72l-0.85,0.15C3.92,99.7,3.82,99.71,3.71,99.71z"/>
			</g>
			<g>
				<path class="st0" d="M35.34,144.74c-0.57,0.13-1.18,0.09-1.66-0.15c-0.88-0.43-0.99-1.36-0.24-2.07l1.34-1.28
					c0.74-0.71,2.05-0.94,2.93-0.5c0.88,0.43,0.99,1.36,0.24,2.07l-1.34,1.28C36.27,144.42,35.82,144.64,35.34,144.74z"/>
			</g>
		</g>
	</g>
	
		<radialGradient id="SVGID_1_" cx="100.5" cy="102" r="54.0012" gradientTransform="matrix(-1 0 0 -0.7 201 173.4)" gradientUnits="userSpaceOnUse">
		<stop  offset="0" style="stop-color:#8DA9B5"/>
		<stop  offset="1" style="stop-color:#272844"/>
	</radialGradient>
	<path class="st1" d="M161,126H40c-6.6,0-12-5.4-12-12V90c0-6.6,5.4-12,12-12h121c6.6,0,12,5.4,12,12v24
		C173,120.6,167.6,126,161,126z"/>
</g>
<g id="Layer_1">
	<g>
		<g id="o_9_">
			<g>
				<path class="st2" d="M160.69,116.53c-1.01-0.05-2.18-0.21-3.19-0.44c-1.67-0.37-2.55-0.82-3.02-1.54
					c-0.17-0.27-0.7-1.08-0.84-5.06c-0.04-1.02-0.03-1.98,0.02-2.71c0.08-1.22,0.27-2.03,0.99-2.58c0.36-0.28,0.77-0.48,1.18-0.62
					c0.63-2.57,1.62-4.2,2.97-4.86c0.85-0.42,1.96-0.59,3.31-0.52c2.14,0.11,6.53,1.1,7.5,2.97c0.33,0.64,0.71,1.37-1.94,7.83
					c-2.54,6.2-3.35,6.73-3.73,6.99C163.24,116.44,162.24,116.61,160.69,116.53L160.69,116.53z"/>
				<path class="st2" d="M160.55,116.39c-1.01-0.05-2.18-0.21-3.19-0.44c-1.67-0.37-2.55-0.82-3.02-1.54
					c-0.17-0.27-0.7-1.08-0.84-5.06c-0.04-1.02-0.03-1.98,0.02-2.71c0.08-1.22,0.27-2.03,0.99-2.58c0.36-0.28,0.77-0.48,1.18-0.62
					c0.63-2.57,1.62-4.2,2.97-4.86c0.85-0.42,1.96-0.59,3.31-0.52c2.14,0.11,6.53,1.1,7.5,2.97c0.33,0.64,0.71,1.37-1.94,7.83
					c-2.54,6.2-3.35,6.73-3.73,6.99C163.09,116.3,162.09,116.47,160.55,116.39C160.55,116.39,160.55,116.39,160.55,116.39z"/>
				<path class="st2" d="M160.4,116.24c-1.01-0.05-2.18-0.21-3.19-0.44c-1.67-0.37-2.55-0.82-3.02-1.54
					c-0.17-0.27-0.7-1.08-0.84-5.06c-0.04-1.02-0.03-1.98,0.02-2.71c0.08-1.22,0.27-2.03,0.99-2.58c0.36-0.28,0.77-0.48,1.18-0.62
					c0.63-2.57,1.62-4.2,2.97-4.86c0.85-0.42,1.96-0.59,3.31-0.52c2.14,0.11,6.53,1.1,7.5,2.97c0.33,0.64,0.71,1.37-1.94,7.83
					c-2.54,6.2-3.35,6.73-3.73,6.99C162.94,116.15,161.94,116.33,160.4,116.24C160.4,116.24,160.4,116.24,160.4,116.24z"/>
				<path class="st2" d="M160.25,116.1c-1.01-0.05-2.18-0.21-3.19-0.44c-1.67-0.37-2.55-0.82-3.02-1.54
					c-0.17-0.27-0.7-1.08-0.84-5.06c-0.04-1.02-0.03-1.98,0.02-2.71c0.08-1.22,0.27-2.03,0.99-2.58c0.36-0.28,0.77-0.48,1.18-0.62
					c0.63-2.57,1.62-4.2,2.97-4.86c0.85-0.42,1.96-0.59,3.31-0.52c2.14,0.11,6.53,1.1,7.5,2.97c0.33,0.64,0.71,1.37-1.94,7.83
					c-2.54,6.2-3.35,6.73-3.73,6.99C162.8,116.01,161.79,116.18,160.25,116.1C160.25,116.1,160.25,116.1,160.25,116.1z"/>
				<path class="st2" d="M160.1,115.96c-1.01-0.05-2.18-0.21-3.19-0.44c-1.67-0.37-2.55-0.82-3.02-1.54
					c-0.17-0.27-0.7-1.08-0.84-5.06c-0.04-1.02-0.03-1.98,0.02-2.71c0.08-1.22,0.27-2.03,0.99-2.58c0.36-0.28,0.77-0.48,1.18-0.62
					c0.63-2.57,1.62-4.2,2.97-4.86c0.85-0.42,1.96-0.59,3.31-0.52c2.14,0.11,6.53,1.1,7.5,2.97c0.33,0.64,0.71,1.37-1.94,7.83
					c-2.54,6.2-3.35,6.73-3.73,6.99C162.65,115.87,161.65,116.04,160.1,115.96C160.1,115.96,160.1,115.96,160.1,115.96z"/>
				<path class="st2" d="M159.95,115.81c-1.01-0.05-2.18-0.21-3.19-0.44c-1.67-0.37-2.55-0.82-3.02-1.54
					c-0.17-0.27-0.7-1.08-0.84-5.06c-0.04-1.02-0.03-1.98,0.02-2.71c0.08-1.22,0.27-2.03,0.99-2.58c0.36-0.28,0.77-0.48,1.18-0.62
					c0.63-2.57,1.62-4.2,2.97-4.86c0.85-0.42,1.96-0.59,3.31-0.52c2.14,0.11,6.53,1.1,7.5,2.97c0.33,0.64,0.71,1.37-1.94,7.83
					c-2.54,6.2-3.35,6.73-3.73,6.99C162.5,115.72,161.5,115.89,159.95,115.81C159.95,115.81,159.95,115.81,159.95,115.81z"/>
				<path class="st2" d="M159.8,115.67c-1.01-0.05-2.18-0.21-3.19-0.44c-1.67-0.37-2.55-0.82-3.02-1.54
					c-0.17-0.27-0.7-1.08-0.84-5.06c-0.04-1.02-0.03-1.98,0.02-2.71c0.08-1.22,0.27-2.03,0.99-2.58c0.36-0.28,0.77-0.48,1.18-0.62
					c0.63-2.57,1.62-4.2,2.97-4.86c0.85-0.42,1.96-0.59,3.31-0.52c2.14,0.11,6.53,1.1,7.5,2.97c0.33,0.64,0.71,1.37-1.94,7.83
					c-2.54,6.2-3.35,6.73-3.73,6.99C162.35,115.58,161.35,115.75,159.8,115.67C159.8,115.67,159.8,115.67,159.8,115.67z"/>
				<path class="st2" d="M159.65,115.53c-1.01-0.05-2.18-0.21-3.19-0.44c-1.67-0.37-2.55-0.82-3.02-1.54
					c-0.17-0.27-0.7-1.08-0.84-5.06c-0.04-1.02-0.03-1.98,0.02-2.71c0.08-1.22,0.27-2.03,0.99-2.58c0.36-0.28,0.77-0.48,1.18-0.62
					c0.63-2.57,1.62-4.2,2.97-4.86c0.85-0.42,1.96-0.59,3.31-0.52c2.14,0.11,6.53,1.1,7.5,2.97c0.33,0.64,0.71,1.37-1.94,7.83
					c-2.54,6.2-3.35,6.73-3.73,6.99C162.2,115.44,161.2,115.61,159.65,115.53C159.65,115.53,159.65,115.53,159.65,115.53z"/>
				<path class="st2" d="M159.51,115.38c-1.01-0.05-2.18-0.21-3.19-0.44c-1.67-0.37-2.55-0.82-3.02-1.54
					c-0.17-0.27-0.7-1.08-0.84-5.06c-0.04-1.02-0.03-1.98,0.02-2.71c0.08-1.22,0.27-2.03,0.99-2.58c0.36-0.28,0.77-0.48,1.18-0.62
					c0.63-2.57,1.62-4.2,2.97-4.86c0.85-0.42,1.96-0.59,3.31-0.52c2.14,0.11,6.53,1.1,7.5,2.97c0.33,0.64,0.71,1.37-1.94,7.83
					c-2.54,6.2-3.35,6.73-3.73,6.99C162.05,115.29,161.05,115.46,159.51,115.38C159.51,115.38,159.51,115.38,159.51,115.38z"/>
				<path class="st2" d="M159.36,115.24c-1.01-0.05-2.18-0.21-3.19-0.44c-1.67-0.37-2.55-0.82-3.02-1.54
					c-0.17-0.27-0.7-1.08-0.84-5.06c-0.04-1.02-0.03-1.98,0.02-2.71c0.08-1.22,0.27-2.03,0.99-2.58c0.36-0.28,0.77-0.48,1.18-0.62
					c0.63-2.57,1.62-4.2,2.97-4.86c0.85-0.42,1.96-0.59,3.31-0.52c2.14,0.11,6.53,1.1,7.5,2.97c0.33,0.64,0.71,1.37-1.94,7.83
					c-2.54,6.2-3.35,6.73-3.73,6.99C161.9,115.15,160.9,115.32,159.36,115.24C159.36,115.24,159.36,115.24,159.36,115.24z"/>
				<path class="st2" d="M159.21,115.09c-1.01-0.05-2.18-0.21-3.19-0.44c-1.67-0.37-2.55-0.82-3.02-1.54
					c-0.17-0.27-0.7-1.08-0.84-5.06c-0.04-1.02-0.03-1.98,0.02-2.71c0.08-1.22,0.27-2.03,0.99-2.58c0.36-0.28,0.77-0.48,1.18-0.62
					c0.63-2.57,1.62-4.2,2.97-4.86c0.85-0.42,1.96-0.59,3.31-0.52c2.14,0.11,6.53,1.1,7.5,2.97c0.33,0.64,0.71,1.37-1.94,7.83
					c-2.54,6.2-3.35,6.73-3.73,6.99C161.76,115.01,160.75,115.18,159.21,115.09C159.21,115.09,159.21,115.09,159.21,115.09z"/>
				<path class="st2" d="M159.06,114.95c-1.01-0.05-2.18-0.21-3.19-0.44c-1.67-0.37-2.55-0.82-3.02-1.54
					c-0.17-0.27-0.7-1.08-0.84-5.06c-0.04-1.02-0.03-1.98,0.02-2.71c0.08-1.22,0.27-2.03,0.99-2.58c0.36-0.28,0.77-0.48,1.18-0.62
					c0.63-2.57,1.62-4.2,2.97-4.86c0.85-0.42,1.96-0.59,3.31-0.52c2.14,0.11,6.53,1.1,7.5,2.97c0.33,0.64,0.71,1.37-1.94,7.83
					c-2.54,6.2-3.35,6.73-3.73,6.99C161.61,114.86,160.61,115.03,159.06,114.95C159.06,114.95,159.06,114.95,159.06,114.95z"/>
			</g>
			<path class="st3" d="M166.05,100.32c-0.5-0.96-5.84-2.54-7.81-1.58c-1.07,0.52-1.82,2.71-2.19,4.77
				c-0.62,0.05-1.23,0.21-1.61,0.5c-0.58,0.45-0.32,7.19,0.26,8.08c0.42,0.65,5.45,1.41,6.32,0.84
				C161.88,112.35,166.55,101.28,166.05,100.32z M160.05,111.18c-0.57,0.39-2.05,0.2-2.23-0.27c-0.09-0.22-0.07-1.5,0-2.9
				c0.65,0.07,1.23-0.01,1.28-0.34c0.33-2.07,1.88-6.94,2.48-7.32c0.6-0.39,1.72-0.01,1.9,0.5
				C163.65,101.37,160.91,110.58,160.05,111.18z"/>
		</g>
		<g id="h_9_">
			<g>
				<path class="st2" d="M140.59,113c-0.89-0.05-3.04-0.34-3.67-1.85c-0.22-0.53-0.63-1.51,0.77-8.09c0.61-2.88,1.47-6.2,2.29-8.86
					c1.46-4.74,2.08-5.33,2.93-5.74c0.56-0.27,1.24-0.38,2-0.34c1.52,0.09,4.2,1,5.09,2.4c0.44,0.69,0.46,1.47,0.05,2.14
					c-0.4,0.65-0.79,1.33-1.15,2.02c0.12,0,0.25,0,0.38,0.01c1.69,0.1,4.31,1.29,5.15,2.66c0.46,0.74,0.46,1.55,0.01,2.23
					c-1.73,2.63-4.06,6.66-5.29,10.95c-0.35,1.23-1.71,1.95-3.47,1.85c-0.7-0.04-1.33-0.2-1.85-0.44
					C143.3,112.6,142.27,113.11,140.59,113z"/>
				<path class="st2" d="M140.44,112.86c-0.89-0.05-3.04-0.34-3.67-1.85c-0.22-0.53-0.63-1.51,0.77-8.09
					c0.61-2.88,1.47-6.2,2.29-8.86c1.46-4.74,2.08-5.33,2.93-5.74c0.56-0.27,1.24-0.38,2-0.34c1.52,0.09,4.2,1,5.09,2.4
					c0.44,0.69,0.46,1.47,0.05,2.14c-0.4,0.65-0.79,1.33-1.15,2.02c0.12,0,0.25,0,0.38,0.01c1.69,0.1,4.31,1.29,5.15,2.66
					c0.46,0.74,0.46,1.55,0.01,2.23c-1.73,2.63-4.06,6.66-5.29,10.95c-0.35,1.23-1.71,1.95-3.47,1.85c-0.7-0.04-1.33-0.2-1.85-0.44
					C143.16,112.45,142.13,112.96,140.44,112.86z"/>
				<path class="st2" d="M140.3,112.71c-0.89-0.05-3.04-0.34-3.67-1.85c-0.22-0.53-0.63-1.51,0.77-8.09
					c0.61-2.88,1.47-6.2,2.29-8.86c1.46-4.74,2.08-5.33,2.93-5.74c0.56-0.27,1.24-0.38,2-0.34c1.52,0.09,4.2,1,5.09,2.4
					c0.44,0.69,0.46,1.47,0.05,2.14c-0.4,0.65-0.79,1.33-1.15,2.02c0.12,0,0.25,0,0.38,0.01c1.69,0.1,4.31,1.29,5.15,2.66
					c0.46,0.74,0.46,1.55,0.01,2.23c-1.73,2.63-4.06,6.66-5.29,10.95c-0.35,1.23-1.71,1.95-3.47,1.85c-0.7-0.04-1.33-0.2-1.85-0.44
					C143.01,112.31,141.98,112.82,140.3,112.71z"/>
				<path class="st2" d="M140.15,112.57c-0.89-0.05-3.04-0.34-3.67-1.85c-0.22-0.53-0.63-1.51,0.77-8.09
					c0.61-2.88,1.47-6.2,2.29-8.86c1.46-4.74,2.08-5.33,2.93-5.74c0.56-0.27,1.24-0.38,2-0.34c1.52,0.09,4.2,1,5.09,2.4
					c0.44,0.69,0.46,1.47,0.05,2.14c-0.4,0.65-0.79,1.33-1.15,2.02c0.12,0,0.25,0,0.38,0.01c1.69,0.1,4.31,1.29,5.15,2.66
					c0.46,0.74,0.46,1.55,0.01,2.23c-1.73,2.63-4.06,6.66-5.29,10.95c-0.35,1.23-1.71,1.95-3.47,1.85c-0.7-0.04-1.33-0.2-1.85-0.44
					C142.87,112.16,141.84,112.67,140.15,112.57z"/>
				<path class="st2" d="M140.01,112.43c-0.89-0.05-3.04-0.34-3.67-1.85c-0.22-0.53-0.63-1.51,0.77-8.09
					c0.61-2.88,1.47-6.2,2.29-8.86c1.46-4.74,2.08-5.33,2.93-5.74c0.56-0.27,1.24-0.38,2-0.34c1.52,0.09,4.2,1,5.09,2.4
					c0.44,0.69,0.46,1.47,0.05,2.14c-0.4,0.65-0.79,1.33-1.15,2.02c0.12,0,0.25,0,0.38,0.01c1.69,0.1,4.31,1.29,5.15,2.66
					c0.46,0.74,0.46,1.55,0.01,2.23c-1.73,2.63-4.06,6.66-5.29,10.95c-0.35,1.23-1.71,1.95-3.47,1.85c-0.7-0.04-1.33-0.2-1.85-0.44
					C142.72,112.02,141.69,112.53,140.01,112.43z"/>
				<path class="st2" d="M139.86,112.28c-0.89-0.05-3.04-0.34-3.67-1.85c-0.22-0.53-0.63-1.51,0.77-8.09
					c0.61-2.88,1.47-6.2,2.29-8.86c1.46-4.74,2.08-5.33,2.93-5.74c0.56-0.27,1.24-0.38,2-0.34c1.52,0.09,4.2,1,5.09,2.4
					c0.44,0.69,0.46,1.47,0.05,2.14c-0.4,0.65-0.79,1.33-1.15,2.02c0.12,0,0.25,0,0.38,0.01c1.69,0.1,4.31,1.29,5.15,2.66
					c0.46,0.74,0.46,1.55,0.01,2.23c-1.73,2.63-4.06,6.66-5.29,10.95c-0.35,1.23-1.71,1.95-3.47,1.85c-0.7-0.04-1.33-0.2-1.85-0.44
					C142.58,111.87,141.55,112.38,139.86,112.28z"/>
				<path class="st2" d="M139.71,112.14c-0.89-0.05-3.04-0.34-3.67-1.85c-0.22-0.53-0.63-1.51,0.77-8.09
					c0.61-2.88,1.47-6.2,2.29-8.86c1.46-4.74,2.08-5.33,2.93-5.74c0.56-0.27,1.24-0.38,2-0.34c1.52,0.09,4.2,1,5.09,2.4
					c0.44,0.69,0.46,1.47,0.05,2.14c-0.4,0.65-0.79,1.33-1.15,2.02c0.12,0,0.25,0,0.38,0.01c1.69,0.1,4.31,1.29,5.15,2.66
					c0.46,0.74,0.46,1.55,0.01,2.23c-1.73,2.63-4.06,6.66-5.29,10.95c-0.35,1.23-1.71,1.95-3.47,1.85c-0.7-0.04-1.33-0.2-1.85-0.44
					C142.43,111.73,141.4,112.24,139.71,112.14z"/>
				<path class="st2" d="M139.57,111.99c-0.89-0.05-3.04-0.34-3.67-1.85c-0.22-0.53-0.63-1.51,0.77-8.09
					c0.61-2.88,1.47-6.2,2.29-8.86c1.46-4.74,2.08-5.33,2.93-5.74c0.56-0.27,1.24-0.38,2-0.34c1.52,0.09,4.2,1,5.09,2.4
					c0.44,0.69,0.46,1.47,0.05,2.14c-0.4,0.65-0.79,1.33-1.15,2.02c0.12,0,0.25,0,0.38,0.01c1.69,0.1,4.31,1.29,5.15,2.66
					c0.46,0.74,0.46,1.55,0.01,2.23c-1.73,2.63-4.06,6.66-5.29,10.95c-0.35,1.23-1.71,1.95-3.47,1.85c-0.7-0.04-1.33-0.2-1.85-0.44
					C142.28,111.58,141.26,112.09,139.57,111.99z"/>
				<path class="st2" d="M139.42,111.85c-0.89-0.05-3.04-0.34-3.67-1.85c-0.22-0.53-0.63-1.51,0.77-8.09
					c0.61-2.88,1.47-6.2,2.29-8.86c1.46-4.74,2.08-5.33,2.93-5.74c0.56-0.27,1.24-0.38,2-0.34c1.52,0.09,4.2,1,5.09,2.4
					c0.44,0.69,0.46,1.47,0.05,2.14c-0.4,0.65-0.79,1.33-1.15,2.02c0.12,0,0.25,0,0.38,0.01c1.69,0.1,4.31,1.29,5.15,2.66
					c0.46,0.74,0.46,1.55,0.01,2.23c-1.73,2.63-4.06,6.66-5.29,10.95c-0.35,1.23-1.71,1.95-3.47,1.85c-0.7-0.04-1.33-0.2-1.85-0.44
					C142.14,111.44,141.11,111.95,139.42,111.85z"/>
				<path class="st2" d="M139.28,111.7c-0.89-0.05-3.04-0.34-3.67-1.85c-0.22-0.53-0.63-1.51,0.77-8.09
					c0.61-2.88,1.47-6.2,2.29-8.86c1.46-4.74,2.08-5.33,2.93-5.74c0.56-0.27,1.24-0.38,2-0.34c1.52,0.09,4.2,1,5.09,2.4
					c0.44,0.69,0.46,1.47,0.05,2.14c-0.4,0.65-0.79,1.33-1.15,2.02c0.12,0,0.25,0,0.38,0.01c1.69,0.1,4.31,1.29,5.15,2.66
					c0.46,0.74,0.46,1.55,0.01,2.23c-1.73,2.63-4.06,6.66-5.29,10.95c-0.35,1.23-1.71,1.95-3.47,1.85c-0.7-0.04-1.33-0.2-1.85-0.44
					C141.99,111.29,140.96,111.8,139.28,111.7z"/>
				<path class="st2" d="M139.13,111.56c-0.89-0.05-3.04-0.34-3.67-1.85c-0.22-0.53-0.63-1.51,0.77-8.09
					c0.61-2.88,1.47-6.2,2.29-8.86c1.46-4.74,2.08-5.33,2.93-5.74c0.56-0.27,1.24-0.38,2-0.34c1.52,0.09,4.2,1,5.09,2.4
					c0.44,0.69,0.46,1.47,0.05,2.14c-0.4,0.65-0.79,1.33-1.15,2.02c0.12,0,0.25,0,0.38,0.01c1.69,0.1,4.31,1.29,5.15,2.66
					c0.46,0.74,0.46,1.55,0.01,2.23c-1.73,2.63-4.06,6.66-5.29,10.95c-0.35,1.23-1.71,1.95-3.47,1.85c-0.7-0.04-1.33-0.2-1.85-0.44
					C141.85,111.15,140.82,111.66,139.13,111.56z"/>
				<path class="st2" d="M138.99,111.41c-0.89-0.05-3.04-0.34-3.67-1.85c-0.22-0.53-0.63-1.51,0.77-8.09
					c0.61-2.88,1.47-6.2,2.29-8.86c1.46-4.74,2.08-5.33,2.93-5.74c0.56-0.27,1.24-0.38,2-0.34c1.52,0.09,4.2,1,5.09,2.4
					c0.44,0.69,0.46,1.47,0.05,2.14c-0.4,0.65-0.79,1.33-1.15,2.02c0.12,0,0.25,0,0.38,0.01c1.69,0.1,4.31,1.29,5.15,2.66
					c0.46,0.74,0.46,1.55,0.01,2.23c-1.73,2.63-4.06,6.66-5.29,10.95c-0.35,1.23-1.71,1.95-3.47,1.85c-0.7-0.04-1.33-0.2-1.85-0.44
					C141.7,111.01,140.67,111.51,138.99,111.41z"/>
			</g>
			<path class="st3" d="M140.53,109.18c-0.18,0.7-2.96,0.38-3.22-0.24c-0.31-0.73,0.1-3.54,0.86-7.12
				c1.24-5.86,3.37-12.95,4.16-13.33c1.14-0.55,4.71,0.95,4.24,1.7c-2.65,4.28-4.1,8.7-4.94,12.45c1.87-3.77,4-6.84,5.22-7.58
				c0.99-0.61,4.67,1.22,4.14,2.01c-2.14,3.24-4.32,7.3-5.51,11.41c-0.24,0.82-2.74,0.45-2.7-0.23c0.03-0.68,2.15-6.74,3.84-9.79
				c0.19-0.34-0.55-0.62-0.83-0.31C143.72,100.51,141.2,106.55,140.53,109.18z"/>
		</g>
		<g id="c_9_">
			<g>
				<path class="st2" d="M128.34,110.73c-0.06,0-5.74-0.03-6.68-2.44c-0.41-1.06-0.21-3.54,0.62-7.37c1.25-5.8,2.13-6.58,2.47-6.87
					c0.74-0.65,1.85-0.96,3.4-0.96c1.27,0,2.87,0.22,4.27,0.59c2.13,0.56,3.23,1.28,3.56,2.33c0.72,2.3-2.58,5.47-2.62,5.5
					c-0.43,0.36-1.01,0.58-1.64,0.64c0.41,0.15,0.83,0.36,1.26,0.65c1.33,0.91,1.45,1.64,1.49,1.87c0.07,0.44,0.16,0.98-1.44,3.13
					c-1.54,2.08-2.4,2.45-2.72,2.59C129.8,110.63,129.17,110.73,128.34,110.73z"/>
				<path class="st2" d="M128.18,110.59c-0.06,0-5.74-0.03-6.68-2.44c-0.41-1.06-0.21-3.54,0.62-7.37c1.25-5.8,2.13-6.58,2.47-6.87
					c0.74-0.65,1.85-0.96,3.4-0.96c1.27,0,2.87,0.22,4.27,0.59c2.13,0.56,3.23,1.28,3.56,2.33c0.72,2.3-2.58,5.47-2.62,5.5
					c-0.43,0.36-1.01,0.58-1.64,0.64c0.41,0.15,0.83,0.36,1.26,0.65c1.33,0.91,1.45,1.64,1.49,1.87c0.07,0.44,0.16,0.98-1.44,3.13
					c-1.54,2.08-2.4,2.45-2.72,2.59C129.64,110.49,129.02,110.59,128.18,110.59z"/>
				<path class="st2" d="M128.03,110.46c-0.06,0-5.74-0.03-6.68-2.44c-0.41-1.06-0.21-3.54,0.62-7.37c1.25-5.8,2.13-6.58,2.47-6.87
					c0.74-0.65,1.85-0.96,3.4-0.96c1.27,0,2.87,0.22,4.27,0.59c2.13,0.56,3.23,1.28,3.56,2.33c0.72,2.3-2.58,5.47-2.62,5.5
					c-0.43,0.36-1.01,0.58-1.64,0.64c0.41,0.15,0.83,0.36,1.26,0.65c1.33,0.91,1.45,1.64,1.49,1.87c0.07,0.44,0.16,0.98-1.44,3.13
					c-1.54,2.08-2.4,2.45-2.72,2.59C129.49,110.36,128.86,110.46,128.03,110.46z"/>
				<path class="st2" d="M127.87,110.32c-0.06,0-5.74-0.03-6.68-2.44c-0.41-1.06-0.21-3.54,0.62-7.37c1.25-5.8,2.13-6.58,2.47-6.87
					c0.74-0.65,1.85-0.96,3.4-0.96c1.28,0,2.87,0.22,4.27,0.59c2.13,0.56,3.23,1.28,3.56,2.33c0.72,2.3-2.58,5.47-2.62,5.5
					c-0.43,0.36-1.01,0.58-1.64,0.64c0.41,0.15,0.83,0.36,1.26,0.65c1.33,0.91,1.45,1.64,1.49,1.87c0.07,0.44,0.16,0.98-1.44,3.13
					c-1.54,2.08-2.4,2.45-2.72,2.59C129.33,110.22,128.7,110.32,127.87,110.32z"/>
				<path class="st2" d="M127.72,110.19c-0.06,0-5.74-0.03-6.68-2.44c-0.41-1.06-0.21-3.54,0.62-7.37c1.25-5.8,2.13-6.58,2.47-6.87
					c0.74-0.65,1.85-0.96,3.4-0.96c1.28,0,2.87,0.22,4.27,0.59c2.13,0.56,3.23,1.28,3.56,2.33c0.72,2.3-2.58,5.47-2.62,5.5
					c-0.43,0.36-1.01,0.58-1.64,0.64c0.41,0.15,0.83,0.36,1.26,0.65c1.33,0.91,1.45,1.64,1.49,1.87c0.07,0.44,0.16,0.98-1.44,3.13
					c-1.54,2.08-2.4,2.45-2.72,2.59C129.17,110.08,128.55,110.19,127.72,110.19z"/>
				<path class="st2" d="M127.56,110.05c-0.06,0-5.74-0.03-6.68-2.44c-0.41-1.06-0.21-3.54,0.62-7.37c1.25-5.8,2.13-6.58,2.47-6.87
					c0.74-0.65,1.85-0.96,3.4-0.96c1.28,0,2.87,0.22,4.27,0.59c2.13,0.56,3.23,1.28,3.56,2.33c0.72,2.3-2.58,5.47-2.62,5.5
					c-0.43,0.36-1.01,0.58-1.64,0.64c0.41,0.15,0.83,0.36,1.26,0.65c1.33,0.91,1.45,1.64,1.49,1.87c0.07,0.44,0.16,0.98-1.44,3.13
					c-1.54,2.08-2.4,2.45-2.72,2.59C129.02,109.95,128.39,110.05,127.56,110.05z"/>
				<path class="st2" d="M127.41,109.92c-0.06,0-5.74-0.03-6.68-2.44c-0.41-1.06-0.21-3.54,0.62-7.37c1.25-5.8,2.13-6.58,2.47-6.87
					c0.74-0.65,1.85-0.96,3.4-0.96c1.28,0,2.87,0.22,4.27,0.59c2.13,0.56,3.23,1.28,3.56,2.33c0.72,2.3-2.58,5.47-2.62,5.5
					c-0.43,0.36-1.01,0.58-1.64,0.64c0.41,0.15,0.83,0.36,1.26,0.65c1.33,0.91,1.45,1.64,1.49,1.87c0.07,0.44,0.16,0.98-1.44,3.13
					c-1.54,2.08-2.4,2.45-2.72,2.59C128.86,109.81,128.24,109.92,127.41,109.92z"/>
				<path class="st2" d="M127.25,109.78c-0.06,0-5.74-0.03-6.68-2.44c-0.41-1.06-0.21-3.54,0.62-7.37c1.25-5.8,2.13-6.58,2.47-6.87
					c0.74-0.65,1.85-0.96,3.4-0.96c1.28,0,2.87,0.22,4.27,0.59c2.13,0.56,3.23,1.28,3.56,2.33c0.72,2.3-2.58,5.47-2.62,5.5
					c-0.43,0.36-1.01,0.58-1.64,0.64c0.41,0.15,0.83,0.36,1.26,0.65c1.33,0.91,1.45,1.64,1.49,1.87c0.07,0.44,0.16,0.98-1.44,3.13
					c-1.54,2.08-2.4,2.45-2.72,2.59C128.71,109.68,128.08,109.78,127.25,109.78z"/>
				<path class="st2" d="M127.09,109.65c-0.06,0-5.74-0.03-6.68-2.44c-0.41-1.06-0.21-3.54,0.62-7.37c1.25-5.8,2.13-6.58,2.47-6.87
					c0.74-0.65,1.85-0.96,3.4-0.96c1.28,0,2.87,0.22,4.27,0.59c2.13,0.56,3.23,1.28,3.56,2.33c0.72,2.3-2.58,5.47-2.62,5.5
					c-0.43,0.36-1.01,0.58-1.64,0.64c0.41,0.15,0.83,0.36,1.26,0.65c1.33,0.91,1.45,1.64,1.49,1.87c0.07,0.44,0.16,0.98-1.44,3.13
					c-1.54,2.08-2.4,2.45-2.72,2.59C128.55,109.54,127.93,109.65,127.09,109.65z"/>
				<path class="st2" d="M126.94,109.51c-0.06,0-5.74-0.03-6.68-2.44c-0.41-1.06-0.21-3.54,0.62-7.37c1.25-5.8,2.13-6.58,2.47-6.87
					c0.74-0.65,1.85-0.96,3.4-0.96c1.28,0,2.87,0.22,4.27,0.59c2.13,0.56,3.23,1.28,3.56,2.33c0.72,2.3-2.58,5.47-2.62,5.5
					c-0.43,0.36-1.01,0.58-1.64,0.64c0.41,0.15,0.83,0.36,1.26,0.65c1.33,0.91,1.45,1.64,1.49,1.87c0.07,0.44,0.16,0.98-1.44,3.13
					c-1.54,2.08-2.4,2.45-2.72,2.59C128.39,109.41,127.77,109.51,126.94,109.51z"/>
				<path class="st2" d="M126.78,109.38c-0.06,0-5.74-0.03-6.68-2.44c-0.41-1.06-0.21-3.54,0.62-7.37c1.25-5.8,2.13-6.58,2.47-6.87
					c0.74-0.65,1.85-0.96,3.4-0.96c1.28,0,2.87,0.22,4.27,0.59c2.13,0.56,3.23,1.28,3.56,2.33c0.72,2.3-2.58,5.47-2.62,5.5
					c-0.43,0.36-1.01,0.58-1.64,0.64c0.41,0.15,0.83,0.36,1.26,0.65c1.33,0.91,1.45,1.64,1.49,1.87c0.07,0.44,0.16,0.98-1.44,3.13
					c-1.54,2.08-2.4,2.45-2.72,2.59C128.24,109.27,127.61,109.37,126.78,109.38z"/>
				<path class="st2" d="M126.63,109.24c-0.06,0-5.74-0.03-6.68-2.44c-0.41-1.06-0.21-3.54,0.62-7.37c1.25-5.8,2.13-6.58,2.47-6.87
					c0.74-0.65,1.85-0.96,3.4-0.96c1.28,0,2.87,0.22,4.27,0.59c2.13,0.56,3.23,1.28,3.56,2.33c0.72,2.3-2.58,5.47-2.62,5.5
					c-0.43,0.36-1.01,0.58-1.64,0.64c0.41,0.15,0.83,0.36,1.26,0.65c1.33,0.91,1.45,1.64,1.49,1.87c0.07,0.44,0.16,0.98-1.44,3.13
					c-1.54,2.08-2.4,2.45-2.72,2.59C128.08,109.14,127.46,109.24,126.63,109.24z"/>
			</g>
			<path class="st3" d="M124.53,93.87c-0.98,0.86-3.19,10.78-2.59,12.34c0.32,0.82,4.73,1.47,5.7,1.05
				c0.97-0.42,3.06-3.49,3.01-3.81c-0.05-0.32-1.75-1.58-2.22-1.03c-0.25,0.29-1.06,2.56-1.54,3.11c-0.34,0.39-1.71,0.26-1.65-0.43
				c0.3-3.52,2.07-8.23,2.8-9.61c0.32-0.6,1.67-0.21,1.61,0.21c-0.15,1-1.11,2.41-1.09,2.7c0.02,0.26,1.17,0.65,1.59,0.3
				c0.42-0.35,2.35-2.7,2.04-3.68C131.9,94.03,125.76,92.79,124.53,93.87z"/>
		</g>
		<g id="j_9_">
			<g>
				<path class="st2" d="M124.59,84.81c-1-1.49-4.34-1.53-4.71-1.53c-0.93,0-1.65,0.14-2.21,0.42c-1.19,0.61-1.87,1.99-2.24,3.04
					c-0.39,1.12-0.49,2.06-0.28,2.79c-0.58,0.23-0.98,0.57-1.2,1.03c-1.02,2.14-1.84,5.45-2.49,10.1c-4.84,5.58-5.42,6.99-4.93,8.16
					c0.83,1.97,5.05,2.18,6.82,2.18l0,0c1.93,0,3.04-0.26,3.71-0.86c0.72-0.64,0.85-1.47,1.21-3.71c0.18-1.13,0.41-2.55,0.78-4.34
					c1.01-4.92,2.22-7.58,2.87-9c0.31-0.69,0.52-1.15,0.6-1.59c0.08-0.48-0.12-0.96-0.56-1.33c-0.03-0.03-0.06-0.05-0.09-0.07
					c0.39-0.82,1.53-2.35,2.48-3.31C124.93,86.2,125.02,85.46,124.59,84.81z"/>
				<path class="st2" d="M124.44,84.7c-1-1.49-4.34-1.53-4.71-1.53c-0.93,0-1.65,0.14-2.21,0.42c-1.19,0.61-1.87,1.99-2.24,3.04
					c-0.39,1.12-0.49,2.06-0.28,2.79c-0.58,0.23-0.98,0.57-1.2,1.03c-1.02,2.14-1.84,5.45-2.49,10.1c-4.84,5.58-5.42,6.99-4.93,8.16
					c0.83,1.97,5.05,2.18,6.82,2.18c0,0,0,0,0,0c1.93,0,3.04-0.26,3.71-0.86c0.72-0.64,0.85-1.47,1.21-3.71
					c0.18-1.13,0.41-2.55,0.78-4.34c1.01-4.92,2.22-7.58,2.87-9c0.31-0.69,0.52-1.15,0.6-1.59c0.08-0.48-0.12-0.96-0.56-1.33
					c-0.03-0.03-0.06-0.05-0.09-0.07c0.39-0.82,1.53-2.35,2.48-3.31C124.78,86.08,124.87,85.34,124.44,84.7z"/>
				<path class="st2" d="M124.28,84.58c-1-1.49-4.34-1.53-4.71-1.53c-0.93,0-1.65,0.14-2.21,0.42c-1.19,0.61-1.87,1.99-2.24,3.04
					c-0.39,1.12-0.49,2.06-0.28,2.79c-0.58,0.23-0.98,0.57-1.2,1.03c-1.02,2.14-1.84,5.45-2.49,10.1c-4.84,5.58-5.42,6.99-4.93,8.16
					c0.83,1.97,5.05,2.18,6.82,2.18c0,0,0,0,0,0c1.93,0,3.04-0.26,3.71-0.86c0.72-0.64,0.85-1.47,1.21-3.71
					c0.18-1.13,0.41-2.55,0.78-4.34c1.01-4.92,2.22-7.58,2.87-9c0.31-0.69,0.52-1.15,0.6-1.59c0.08-0.48-0.12-0.96-0.56-1.33
					c-0.03-0.03-0.06-0.05-0.09-0.07c0.39-0.82,1.53-2.35,2.48-3.31C124.62,85.96,124.71,85.23,124.28,84.58z"/>
				<path class="st2" d="M124.12,84.46c-1-1.49-4.34-1.53-4.71-1.53c-0.93,0-1.65,0.14-2.21,0.42c-1.19,0.61-1.87,1.99-2.24,3.04
					c-0.39,1.12-0.49,2.06-0.28,2.79c-0.58,0.23-0.98,0.57-1.2,1.03c-1.02,2.14-1.84,5.45-2.49,10.1c-4.84,5.58-5.42,6.99-4.93,8.16
					c0.83,1.97,5.05,2.18,6.82,2.18c0,0,0,0,0,0c1.93,0,3.04-0.26,3.71-0.86c0.72-0.64,0.85-1.47,1.21-3.71
					c0.18-1.13,0.41-2.55,0.78-4.34c1.01-4.92,2.22-7.58,2.87-9c0.31-0.69,0.52-1.15,0.6-1.59c0.08-0.48-0.12-0.96-0.56-1.33
					c-0.03-0.03-0.06-0.05-0.09-0.07c0.39-0.82,1.53-2.35,2.48-3.31C124.46,85.85,124.56,85.11,124.12,84.46z"/>
				<path class="st2" d="M123.97,84.35c-1-1.49-4.34-1.53-4.71-1.53c-0.93,0-1.65,0.14-2.21,0.42c-1.19,0.61-1.87,1.99-2.24,3.04
					c-0.39,1.12-0.49,2.06-0.28,2.79c-0.58,0.23-0.98,0.57-1.2,1.03c-1.02,2.14-1.84,5.45-2.49,10.1c-4.84,5.58-5.42,6.99-4.93,8.16
					c0.83,1.97,5.05,2.18,6.82,2.18c0,0,0,0,0,0c1.93,0,3.04-0.26,3.71-0.86c0.72-0.64,0.85-1.47,1.21-3.71
					c0.18-1.13,0.41-2.55,0.78-4.34c1.01-4.92,2.22-7.58,2.87-9c0.31-0.69,0.52-1.15,0.6-1.59c0.08-0.48-0.12-0.96-0.56-1.33
					c-0.03-0.03-0.06-0.05-0.09-0.07c0.39-0.82,1.53-2.35,2.48-3.31C124.31,85.73,124.4,84.99,123.97,84.35z"/>
				<path class="st2" d="M123.81,84.23c-1-1.49-4.34-1.53-4.71-1.53c-0.93,0-1.65,0.14-2.21,0.42c-1.19,0.61-1.87,1.99-2.24,3.04
					c-0.39,1.12-0.49,2.06-0.28,2.79c-0.58,0.23-0.98,0.57-1.2,1.03c-1.02,2.14-1.84,5.45-2.49,10.1c-4.84,5.58-5.42,6.99-4.93,8.16
					c0.83,1.97,5.05,2.18,6.82,2.18c0,0,0,0,0,0c1.93,0,3.04-0.26,3.71-0.86c0.72-0.64,0.85-1.47,1.21-3.71
					c0.18-1.13,0.41-2.55,0.78-4.34c1.01-4.92,2.22-7.58,2.87-9c0.31-0.69,0.52-1.15,0.6-1.59c0.08-0.48-0.12-0.96-0.56-1.33
					c-0.03-0.03-0.06-0.05-0.09-0.07c0.39-0.82,1.53-2.35,2.48-3.31C124.15,85.61,124.25,84.88,123.81,84.23z"/>
				<path class="st2" d="M123.66,84.11c-1-1.49-4.34-1.53-4.71-1.53c-0.93,0-1.65,0.14-2.21,0.42c-1.19,0.61-1.87,1.99-2.24,3.04
					c-0.39,1.12-0.49,2.06-0.28,2.79c-0.58,0.23-0.98,0.57-1.2,1.03c-1.02,2.14-1.84,5.45-2.49,10.1c-4.84,5.58-5.42,6.99-4.93,8.16
					c0.83,1.97,5.05,2.18,6.82,2.18c0,0,0,0,0,0c1.93,0,3.04-0.26,3.71-0.86c0.72-0.64,0.85-1.47,1.21-3.71
					c0.18-1.13,0.41-2.55,0.78-4.34c1.01-4.92,2.22-7.58,2.87-9c0.31-0.69,0.52-1.15,0.6-1.59c0.08-0.48-0.12-0.96-0.56-1.33
					c-0.03-0.03-0.06-0.05-0.09-0.07c0.39-0.82,1.53-2.35,2.48-3.31C124,85.5,124.09,84.76,123.66,84.11z"/>
				<path class="st2" d="M123.5,84c-1-1.49-4.34-1.53-4.71-1.53c-0.93,0-1.65,0.14-2.21,0.42c-1.19,0.61-1.87,1.99-2.24,3.04
					c-0.39,1.12-0.49,2.06-0.28,2.79c-0.58,0.23-0.98,0.57-1.2,1.03c-1.02,2.14-1.84,5.45-2.49,10.1c-4.84,5.58-5.42,6.99-4.93,8.16
					c0.83,1.97,5.05,2.18,6.82,2.18c0,0,0,0,0,0c1.93,0,3.04-0.26,3.71-0.86c0.72-0.64,0.85-1.47,1.21-3.71
					c0.18-1.13,0.41-2.55,0.78-4.34c1.01-4.92,2.22-7.58,2.87-9c0.31-0.69,0.52-1.15,0.6-1.59c0.08-0.48-0.12-0.96-0.56-1.33
					c-0.03-0.03-0.06-0.05-0.09-0.07c0.39-0.82,1.53-2.35,2.48-3.31C123.84,85.38,123.93,84.64,123.5,84z"/>
				<path class="st2" d="M123.34,83.88c-1-1.49-4.34-1.53-4.71-1.53c-0.93,0-1.65,0.14-2.21,0.42c-1.19,0.61-1.87,1.99-2.24,3.04
					c-0.39,1.12-0.49,2.06-0.28,2.79c-0.58,0.23-0.98,0.57-1.2,1.03c-1.02,2.14-1.84,5.45-2.49,10.1c-4.84,5.58-5.42,6.99-4.93,8.16
					c0.83,1.97,5.05,2.18,6.82,2.18c0,0,0,0,0,0c1.93,0,3.04-0.26,3.71-0.86c0.72-0.64,0.85-1.47,1.21-3.71
					c0.18-1.13,0.41-2.55,0.78-4.34c1.01-4.92,2.22-7.58,2.87-9c0.31-0.69,0.52-1.15,0.6-1.59c0.08-0.48-0.12-0.96-0.56-1.33
					c-0.03-0.03-0.06-0.05-0.09-0.07c0.39-0.82,1.53-2.35,2.48-3.31C123.68,85.26,123.78,84.53,123.34,83.88z"/>
				<path class="st2" d="M123.19,83.76c-1-1.49-4.34-1.53-4.71-1.53c-0.93,0-1.65,0.14-2.21,0.42c-1.19,0.61-1.87,1.99-2.24,3.04
					c-0.39,1.12-0.49,2.06-0.28,2.79c-0.58,0.23-0.98,0.57-1.2,1.03c-1.02,2.14-1.84,5.45-2.49,10.1c-4.84,5.58-5.42,6.99-4.93,8.16
					c0.83,1.97,5.05,2.18,6.82,2.18c0,0,0,0,0,0c1.93,0,3.04-0.26,3.71-0.86c0.72-0.64,0.85-1.47,1.21-3.71
					c0.18-1.13,0.41-2.55,0.78-4.34c1.01-4.92,2.22-7.58,2.87-9c0.31-0.69,0.52-1.15,0.6-1.59c0.08-0.48-0.12-0.96-0.56-1.33
					c-0.03-0.03-0.06-0.05-0.09-0.07c0.39-0.82,1.53-2.35,2.48-3.31C123.53,85.15,123.62,84.41,123.19,83.76z"/>
				<path class="st2" d="M123.03,83.65c-1-1.49-4.34-1.53-4.71-1.53c-0.93,0-1.65,0.14-2.21,0.42c-1.19,0.61-1.87,1.99-2.24,3.04
					c-0.39,1.12-0.49,2.06-0.28,2.79c-0.58,0.23-0.98,0.57-1.2,1.03c-1.02,2.14-1.84,5.45-2.49,10.1c-4.84,5.58-5.42,6.99-4.93,8.16
					c0.83,1.97,5.05,2.18,6.82,2.18c0,0,0,0,0,0c1.93,0,3.04-0.26,3.71-0.86c0.72-0.64,0.85-1.47,1.21-3.71
					c0.18-1.13,0.41-2.55,0.78-4.34c1.01-4.92,2.22-7.58,2.87-9c0.31-0.69,0.52-1.15,0.6-1.59c0.08-0.48-0.12-0.96-0.56-1.33
					c-0.03-0.03-0.06-0.05-0.09-0.07c0.39-0.82,1.53-2.35,2.48-3.31C123.37,85.03,123.47,84.29,123.03,83.65z"/>
				<path class="st2" d="M122.88,83.53c-1-1.49-4.34-1.53-4.71-1.53c-0.93,0-1.65,0.14-2.21,0.42c-1.19,0.61-1.87,1.99-2.24,3.04
					c-0.39,1.12-0.49,2.06-0.28,2.79c-0.58,0.23-0.98,0.57-1.2,1.03c-1.02,2.14-1.84,5.45-2.49,10.1c-4.84,5.58-5.42,6.99-4.93,8.16
					c0.83,1.97,5.05,2.18,6.82,2.18c0,0,0,0,0,0c1.93,0,3.04-0.26,3.71-0.86c0.72-0.64,0.85-1.47,1.21-3.71
					c0.18-1.13,0.41-2.55,0.78-4.34c1.01-4.92,2.22-7.58,2.87-9c0.31-0.69,0.52-1.15,0.6-1.59c0.08-0.48-0.12-0.96-0.56-1.33
					c-0.03-0.03-0.06-0.05-0.09-0.07c0.39-0.82,1.53-2.35,2.48-3.31C123.22,84.91,123.31,84.18,122.88,83.53z"/>
			</g>
			<g>
				<path class="st3" d="M114.23,89.81c-1.22,2.55-1.96,6.63-2.43,10.11c-2.46,2.83-5.33,6.25-4.96,7.13
					c0.47,1.11,6.27,1.33,6.89,0.78c0.51-0.45,0.59-2.72,1.51-7.26c1.45-7.07,3.29-9.57,3.46-10.55
					C118.76,89.63,114.53,89.18,114.23,89.81z M110.95,106.48c-0.42,0.39-2.07,0.02-2.16-0.16c-0.14-0.26,1.15-2.03,2.7-3.92
					C111.22,104.71,111.07,106.37,110.95,106.48z"/>
				<path class="st3" d="M115.66,88.24c-0.69-0.85,0.48-3.98,1.5-4.51c0.77-0.4,4.5,0.08,3.77,0.83c-1.15,1.16-2.6,3.1-2.94,4.11
					C117.84,89.13,116.01,88.68,115.66,88.24z"/>
			</g>
		</g>
		<g id="e_9_">
			<g>
				<path class="st2" d="M98.39,108.7c-0.06,0-5.73-0.35-6.53-2.82c-0.35-1.08,0-3.54,1.04-7.32c1.58-5.72,2.51-6.44,2.86-6.72
					c0.77-0.6,1.9-0.85,3.45-0.77c1.27,0.07,2.86,0.38,4.23,0.84c2.1,0.69,3.15,1.46,3.42,2.53c0.23,0.93-0.09,1.99-2.45,4.89
					c-0.31,0.38-0.78,0.94-1.26,1.48c0.11,0.07,0.22,0.15,0.33,0.24c1.28,0.98,1.36,1.72,1.38,1.96c0.05,0.44,0.1,0.98-1.62,3.04
					c-1.66,1.99-2.54,2.31-2.87,2.43C99.85,108.68,99.22,108.75,98.39,108.7z"/>
				<path class="st2" d="M98.24,108.55c-0.06,0-5.73-0.35-6.53-2.82c-0.35-1.08,0-3.54,1.04-7.32c1.58-5.72,2.51-6.44,2.86-6.72
					c0.77-0.6,1.9-0.85,3.45-0.77c1.27,0.07,2.86,0.38,4.23,0.84c2.1,0.69,3.15,1.46,3.42,2.53c0.23,0.93-0.09,1.99-2.45,4.89
					c-0.31,0.38-0.78,0.94-1.26,1.48c0.11,0.07,0.22,0.15,0.33,0.24c1.28,0.98,1.36,1.72,1.38,1.96c0.05,0.44,0.1,0.98-1.62,3.04
					c-1.66,1.99-2.54,2.31-2.87,2.43C99.7,108.53,99.07,108.6,98.24,108.55z"/>
				<path class="st2" d="M98.1,108.41c-0.06,0-5.73-0.35-6.53-2.82c-0.35-1.08,0-3.54,1.04-7.32c1.58-5.72,2.51-6.44,2.86-6.72
					c0.77-0.6,1.9-0.85,3.45-0.77c1.27,0.07,2.86,0.38,4.23,0.84c2.1,0.69,3.15,1.46,3.42,2.53c0.23,0.93-0.09,1.99-2.45,4.89
					c-0.31,0.38-0.78,0.94-1.26,1.48c0.11,0.07,0.22,0.15,0.33,0.24c1.28,0.98,1.36,1.72,1.38,1.96c0.05,0.44,0.1,0.98-1.62,3.04
					c-1.66,1.99-2.54,2.31-2.87,2.43C99.55,108.39,98.93,108.46,98.1,108.41z"/>
				<path class="st2" d="M97.95,108.27c-0.06,0-5.73-0.35-6.53-2.82c-0.35-1.08,0-3.54,1.04-7.32c1.58-5.72,2.51-6.44,2.86-6.72
					c0.77-0.6,1.9-0.85,3.45-0.77c1.27,0.07,2.85,0.38,4.23,0.84c2.1,0.69,3.15,1.46,3.42,2.53c0.23,0.93-0.09,1.99-2.45,4.89
					c-0.31,0.38-0.78,0.94-1.26,1.48c0.11,0.07,0.22,0.15,0.33,0.24c1.28,0.98,1.36,1.72,1.38,1.96c0.05,0.44,0.1,0.98-1.62,3.04
					c-1.66,1.99-2.54,2.31-2.87,2.43C99.41,108.25,98.78,108.31,97.95,108.27z"/>
				<path class="st2" d="M97.8,108.12c-0.06,0-5.73-0.35-6.53-2.82c-0.35-1.08,0-3.54,1.04-7.32c1.58-5.72,2.51-6.44,2.86-6.72
					c0.77-0.6,1.9-0.85,3.45-0.77c1.27,0.07,2.85,0.38,4.23,0.84c2.1,0.69,3.15,1.46,3.42,2.53c0.23,0.93-0.09,1.99-2.45,4.89
					c-0.31,0.38-0.78,0.94-1.26,1.48c0.11,0.07,0.22,0.15,0.33,0.24c1.28,0.98,1.36,1.72,1.38,1.96c0.05,0.44,0.1,0.98-1.62,3.04
					c-1.66,1.99-2.54,2.31-2.87,2.43C99.26,108.1,98.63,108.17,97.8,108.12z"/>
				<path class="st2" d="M97.65,107.98c-0.06,0-5.73-0.35-6.53-2.82c-0.35-1.08,0-3.54,1.04-7.32c1.58-5.72,2.51-6.44,2.86-6.72
					c0.77-0.6,1.9-0.85,3.45-0.77c1.27,0.07,2.85,0.38,4.23,0.84c2.1,0.69,3.15,1.46,3.42,2.53c0.23,0.93-0.09,1.99-2.45,4.89
					c-0.31,0.38-0.78,0.94-1.26,1.48c0.11,0.07,0.22,0.15,0.33,0.24c1.28,0.98,1.36,1.72,1.38,1.96c0.05,0.44,0.1,0.98-1.62,3.04
					c-1.66,1.99-2.54,2.31-2.87,2.43C99.11,107.96,98.48,108.02,97.65,107.98z"/>
				<path class="st2" d="M97.5,107.83c-0.06,0-5.73-0.35-6.53-2.82c-0.35-1.08,0-3.54,1.04-7.32c1.58-5.72,2.51-6.44,2.86-6.72
					c0.77-0.6,1.9-0.85,3.45-0.77c1.27,0.07,2.85,0.38,4.23,0.84c2.1,0.69,3.15,1.46,3.42,2.53c0.23,0.93-0.09,1.99-2.45,4.89
					c-0.31,0.38-0.78,0.94-1.26,1.48c0.11,0.07,0.22,0.15,0.33,0.24c1.28,0.98,1.36,1.72,1.38,1.96c0.05,0.44,0.1,0.98-1.62,3.04
					c-1.66,1.99-2.54,2.31-2.87,2.43C98.96,107.81,98.33,107.88,97.5,107.83z"/>
				<path class="st2" d="M97.36,107.69c-0.06,0-5.73-0.35-6.53-2.82c-0.35-1.08,0-3.54,1.04-7.32c1.58-5.72,2.51-6.44,2.86-6.72
					c0.77-0.6,1.9-0.85,3.45-0.77c1.27,0.07,2.85,0.38,4.23,0.84c2.1,0.69,3.15,1.46,3.42,2.53c0.23,0.93-0.09,1.99-2.45,4.89
					c-0.31,0.38-0.78,0.94-1.26,1.48c0.11,0.07,0.22,0.15,0.33,0.24c1.28,0.98,1.36,1.72,1.38,1.96c0.05,0.44,0.1,0.98-1.62,3.04
					c-1.66,1.99-2.54,2.31-2.87,2.43C98.81,107.67,98.19,107.74,97.36,107.69z"/>
				<path class="st2" d="M97.21,107.54c-0.06,0-5.73-0.35-6.53-2.82c-0.35-1.08,0-3.54,1.04-7.32c1.58-5.72,2.51-6.44,2.86-6.72
					c0.77-0.6,1.9-0.85,3.45-0.77c1.27,0.07,2.85,0.38,4.23,0.84c2.1,0.69,3.15,1.46,3.42,2.53c0.23,0.93-0.09,1.99-2.45,4.89
					c-0.31,0.38-0.78,0.94-1.26,1.48c0.11,0.07,0.22,0.15,0.33,0.24c1.28,0.98,1.36,1.72,1.38,1.96c0.05,0.44,0.1,0.98-1.62,3.04
					c-1.66,1.99-2.54,2.31-2.87,2.43C98.67,107.52,98.04,107.59,97.21,107.54z"/>
				<path class="st2" d="M97.06,107.4c-0.06,0-5.73-0.35-6.53-2.82c-0.35-1.08,0-3.54,1.04-7.32c1.58-5.72,2.51-6.44,2.86-6.72
					c0.77-0.6,1.9-0.85,3.45-0.77c1.27,0.07,2.85,0.38,4.23,0.84c2.1,0.69,3.15,1.46,3.42,2.53c0.23,0.93-0.09,1.99-2.45,4.89
					c-0.31,0.38-0.78,0.94-1.26,1.48c0.11,0.07,0.22,0.15,0.33,0.24c1.28,0.98,1.36,1.72,1.38,1.96c0.05,0.44,0.1,0.98-1.62,3.04
					c-1.66,1.99-2.54,2.31-2.87,2.43C98.52,107.38,97.89,107.45,97.06,107.4z"/>
				<path class="st2" d="M96.91,107.26c-0.06,0-5.73-0.35-6.53-2.82c-0.35-1.08,0-3.54,1.04-7.32c1.58-5.72,2.51-6.44,2.86-6.72
					c0.77-0.6,1.9-0.85,3.45-0.77c1.27,0.07,2.85,0.38,4.23,0.84c2.1,0.69,3.15,1.46,3.42,2.53c0.23,0.93-0.09,1.99-2.45,4.89
					c-0.31,0.38-0.78,0.94-1.26,1.48c0.11,0.07,0.22,0.15,0.33,0.24c1.28,0.98,1.36,1.72,1.38,1.96c0.05,0.44,0.1,0.98-1.62,3.04
					c-1.66,1.99-2.54,2.31-2.87,2.43C98.37,107.24,97.74,107.3,96.91,107.26z"/>
				<path class="st2" d="M96.76,107.11c-0.06,0-5.73-0.35-6.53-2.82c-0.35-1.08,0-3.54,1.04-7.32c1.58-5.72,2.51-6.44,2.86-6.72
					c0.77-0.6,1.9-0.85,3.45-0.77c1.27,0.07,2.85,0.38,4.23,0.84c2.1,0.69,3.15,1.46,3.42,2.53c0.23,0.93-0.09,1.99-2.45,4.89
					c-0.31,0.38-0.78,0.94-1.26,1.48c0.11,0.07,0.22,0.15,0.33,0.24c1.28,0.98,1.36,1.72,1.38,1.96c0.05,0.44,0.1,0.98-1.62,3.04
					c-1.66,1.99-2.54,2.31-2.87,2.43C98.22,107.09,97.59,107.16,96.76,107.11z"/>
			</g>
			<path class="st3" d="M96.61,98.99c0.3,0.33,1.41,0.9,1.79,0.61c0.44-0.33,5-5.39,4.75-6.38c-0.25-1-6.31-2.58-7.6-1.58
				c-1.03,0.8-3.81,10.58-3.29,12.17c0.27,0.84,4.64,1.74,5.63,1.38c0.99-0.36,3.26-3.31,3.22-3.63c-0.03-0.33-1.65-1.67-2.15-1.15
				c-0.26,0.28-1.21,2.49-1.71,3.02c-0.36,0.38-1.72,0.16-1.62-0.53C95.81,101.67,96.17,100.31,96.61,98.99z M98.98,93.46
				c0.35-0.58,1.68-0.11,1.6,0.3c-0.17,0.84-2.94,3.69-3.8,4.73C97.56,96.27,98.49,94.27,98.98,93.46z"/>
		</g>
		<g id="t_9_">
			<g>
				<path class="st2" d="M80.41,110.52c-1.53-0.06-2.6-0.6-3.01-1.53c-0.74-1.68,0.32-7.43,0.44-8.08c0.16-0.82,0.34-1.71,0.56-2.63
					c-0.29,0.12-0.62,0.17-0.94,0.16c-0.41-0.02-1.41-0.17-1.93-1.28c-0.1-0.2-0.91-2.02,0.22-3.08c0.47-0.45,2.58-1.59,4.45-2.49
					c0.35-1.14,0.69-2.13,0.99-2.9c0.61-1.58,1.01-2.17,1.71-2.53c0.52-0.26,1.15-0.38,1.87-0.35c1.45,0.06,3.91,0.83,4.78,2.13
					c0.17,0.25,0.28,0.52,0.32,0.79c0.06,0,0.11,0,0.17,0l0.09,0c0.69,0.04,1.56,0.4,1.94,1.33c0.22,0.54,0.28,1.36,0.17,2.42
					c-0.16,1.55-0.48,2.1-0.96,2.49c-0.63,0.51-1.35,0.51-1.87,0.51c-0.45,0-1.2,0-2.45,0.2c-1.63,4.48-2.34,8.94-2.87,12.8
					C83.89,109.8,82.45,110.6,80.41,110.52C80.41,110.52,80.41,110.52,80.41,110.52z"/>
				<path class="st2" d="M80.27,110.38c-1.53-0.06-2.6-0.6-3.01-1.53c-0.74-1.68,0.32-7.43,0.44-8.08c0.16-0.82,0.34-1.71,0.56-2.63
					c-0.29,0.12-0.62,0.17-0.94,0.16c-0.41-0.02-1.41-0.17-1.93-1.28c-0.1-0.2-0.91-2.02,0.22-3.08c0.47-0.45,2.58-1.59,4.45-2.49
					c0.35-1.14,0.69-2.13,0.99-2.9c0.61-1.58,1.01-2.17,1.71-2.52c0.52-0.26,1.15-0.38,1.87-0.35c1.45,0.06,3.91,0.83,4.78,2.13
					c0.17,0.25,0.28,0.52,0.32,0.79c0.06,0,0.11,0,0.17,0l0.09,0c0.69,0.04,1.56,0.4,1.94,1.33c0.22,0.54,0.28,1.36,0.17,2.42
					c-0.16,1.55-0.48,2.1-0.96,2.49c-0.63,0.51-1.35,0.51-1.87,0.51c-0.45,0-1.2,0-2.45,0.2c-1.63,4.48-2.34,8.94-2.87,12.8
					C83.75,109.67,82.31,110.47,80.27,110.38C80.27,110.38,80.27,110.38,80.27,110.38z"/>
				<path class="st2" d="M80.13,110.25c-1.53-0.06-2.6-0.6-3.01-1.53c-0.74-1.68,0.32-7.43,0.44-8.08c0.16-0.82,0.34-1.71,0.56-2.63
					c-0.29,0.12-0.62,0.17-0.94,0.16c-0.41-0.02-1.41-0.17-1.93-1.28c-0.1-0.2-0.91-2.02,0.22-3.08c0.47-0.45,2.58-1.59,4.45-2.49
					c0.35-1.14,0.69-2.13,0.99-2.9c0.61-1.58,1.01-2.17,1.71-2.52c0.52-0.26,1.15-0.38,1.87-0.35c1.45,0.06,3.92,0.83,4.78,2.13
					c0.17,0.25,0.28,0.52,0.32,0.79c0.06,0,0.11,0,0.17,0l0.09,0c0.69,0.04,1.56,0.4,1.94,1.33c0.22,0.54,0.28,1.36,0.17,2.42
					c-0.16,1.55-0.48,2.1-0.96,2.49c-0.63,0.51-1.35,0.51-1.87,0.51c-0.45,0-1.2,0-2.45,0.2c-1.63,4.48-2.34,8.94-2.87,12.8
					C83.61,109.54,82.17,110.33,80.13,110.25C80.13,110.25,80.13,110.25,80.13,110.25z"/>
				<path class="st2" d="M79.99,110.12c-1.53-0.06-2.6-0.6-3.01-1.53c-0.74-1.68,0.32-7.43,0.44-8.08c0.16-0.82,0.34-1.71,0.56-2.63
					c-0.29,0.12-0.62,0.17-0.94,0.16c-0.41-0.02-1.41-0.17-1.93-1.28c-0.1-0.2-0.91-2.02,0.22-3.08c0.47-0.45,2.58-1.59,4.45-2.49
					c0.35-1.14,0.69-2.13,0.99-2.9c0.61-1.58,1.01-2.17,1.71-2.52c0.52-0.26,1.15-0.38,1.87-0.35c1.45,0.06,3.92,0.83,4.78,2.13
					c0.17,0.25,0.28,0.52,0.32,0.79c0.06,0,0.11,0,0.17,0l0.09,0c0.69,0.04,1.56,0.4,1.94,1.33c0.22,0.54,0.28,1.36,0.17,2.42
					c-0.16,1.55-0.48,2.1-0.96,2.49c-0.63,0.51-1.35,0.51-1.87,0.51c-0.45,0-1.2,0-2.45,0.2c-1.63,4.48-2.34,8.94-2.87,12.8
					C83.48,109.4,82.03,110.2,79.99,110.12C79.99,110.12,79.99,110.12,79.99,110.12z"/>
				<path class="st2" d="M79.85,109.98c-1.53-0.06-2.6-0.6-3.01-1.53c-0.74-1.68,0.32-7.43,0.44-8.08c0.16-0.82,0.34-1.71,0.56-2.63
					c-0.29,0.12-0.62,0.17-0.94,0.16c-0.41-0.02-1.41-0.17-1.93-1.28c-0.1-0.2-0.91-2.02,0.22-3.08c0.47-0.45,2.58-1.59,4.45-2.49
					c0.35-1.14,0.69-2.13,0.99-2.9c0.61-1.58,1.01-2.17,1.71-2.52c0.52-0.26,1.15-0.38,1.87-0.35c1.45,0.06,3.92,0.83,4.78,2.13
					c0.17,0.25,0.28,0.52,0.32,0.79c0.06,0,0.11,0,0.17,0.01l0.09,0c0.69,0.04,1.56,0.4,1.94,1.33c0.22,0.54,0.28,1.36,0.17,2.42
					c-0.16,1.55-0.48,2.1-0.96,2.49c-0.63,0.51-1.35,0.51-1.87,0.51c-0.45,0-1.2,0-2.45,0.2c-1.63,4.48-2.34,8.94-2.87,12.8
					C83.34,109.27,81.9,110.07,79.85,109.98C79.85,109.98,79.85,109.98,79.85,109.98z"/>
				<path class="st2" d="M79.71,109.85c-1.53-0.06-2.6-0.6-3.01-1.53c-0.74-1.68,0.32-7.43,0.44-8.08c0.16-0.82,0.34-1.71,0.56-2.63
					c-0.29,0.12-0.62,0.17-0.94,0.16c-0.41-0.02-1.41-0.17-1.93-1.28c-0.1-0.2-0.91-2.02,0.22-3.08c0.47-0.45,2.58-1.59,4.45-2.49
					c0.35-1.14,0.69-2.13,0.99-2.9c0.61-1.58,1.01-2.17,1.71-2.52c0.52-0.26,1.15-0.38,1.87-0.35c1.45,0.06,3.92,0.83,4.78,2.13
					c0.17,0.25,0.28,0.52,0.32,0.79c0.06,0,0.11,0,0.17,0.01l0.09,0c0.69,0.04,1.56,0.4,1.94,1.33c0.22,0.54,0.28,1.36,0.17,2.42
					c-0.16,1.55-0.48,2.1-0.96,2.49c-0.63,0.51-1.35,0.51-1.87,0.51c-0.45,0-1.2,0-2.45,0.2c-1.63,4.48-2.34,8.94-2.87,12.8
					C83.2,109.14,81.76,109.93,79.71,109.85C79.71,109.85,79.71,109.85,79.71,109.85z"/>
				<path class="st2" d="M79.57,109.72c-1.53-0.06-2.6-0.6-3.01-1.53c-0.74-1.68,0.32-7.43,0.44-8.08c0.16-0.82,0.34-1.71,0.56-2.63
					c-0.29,0.12-0.62,0.17-0.94,0.16c-0.41-0.02-1.41-0.17-1.93-1.28c-0.1-0.2-0.91-2.02,0.22-3.08c0.47-0.45,2.58-1.59,4.45-2.49
					c0.35-1.14,0.69-2.13,0.99-2.9c0.61-1.58,1.01-2.17,1.71-2.52c0.52-0.26,1.15-0.38,1.87-0.35c1.45,0.06,3.92,0.83,4.78,2.13
					c0.17,0.25,0.28,0.52,0.32,0.79c0.06,0,0.11,0,0.17,0.01l0.09,0c0.69,0.04,1.56,0.4,1.94,1.33c0.22,0.54,0.28,1.36,0.17,2.42
					c-0.16,1.55-0.48,2.1-0.96,2.49c-0.63,0.51-1.35,0.51-1.87,0.51c-0.45,0-1.2,0-2.45,0.2c-1.63,4.48-2.34,8.94-2.87,12.8
					C83.06,109,81.62,109.8,79.57,109.72C79.57,109.72,79.57,109.72,79.57,109.72z"/>
				<path class="st2" d="M79.43,109.58c-1.53-0.06-2.6-0.6-3.01-1.53c-0.74-1.68,0.32-7.43,0.44-8.08c0.16-0.82,0.34-1.71,0.56-2.63
					c-0.29,0.12-0.62,0.17-0.94,0.16c-0.41-0.02-1.41-0.17-1.93-1.28c-0.1-0.2-0.91-2.02,0.22-3.08c0.47-0.45,2.58-1.59,4.45-2.49
					c0.35-1.14,0.69-2.13,0.99-2.9c0.61-1.58,1.01-2.17,1.71-2.52c0.52-0.26,1.15-0.38,1.87-0.35c1.45,0.06,3.92,0.83,4.78,2.13
					c0.17,0.25,0.28,0.52,0.32,0.79c0.06,0,0.11,0,0.17,0.01l0.09,0c0.69,0.04,1.56,0.4,1.94,1.33c0.22,0.54,0.28,1.36,0.17,2.42
					c-0.16,1.55-0.48,2.1-0.96,2.49c-0.63,0.51-1.35,0.51-1.87,0.51c-0.45,0-1.2,0-2.45,0.2c-1.63,4.48-2.34,8.94-2.87,12.8
					C82.92,108.87,81.48,109.67,79.43,109.58C79.43,109.58,79.43,109.58,79.43,109.58z"/>
				<path class="st2" d="M79.29,109.45c-1.53-0.06-2.6-0.6-3.01-1.53c-0.74-1.68,0.32-7.43,0.44-8.08c0.16-0.82,0.34-1.71,0.56-2.63
					c-0.29,0.12-0.62,0.17-0.94,0.16c-0.41-0.02-1.41-0.17-1.93-1.28c-0.1-0.2-0.91-2.02,0.22-3.08c0.47-0.45,2.58-1.59,4.45-2.49
					c0.35-1.14,0.69-2.13,0.99-2.9c0.61-1.58,1.01-2.17,1.71-2.52c0.52-0.26,1.15-0.38,1.87-0.35c1.45,0.06,3.92,0.83,4.78,2.13
					c0.17,0.25,0.28,0.52,0.32,0.79c0.06,0,0.11,0,0.17,0.01l0.09,0c0.69,0.04,1.56,0.4,1.94,1.33c0.22,0.54,0.28,1.36,0.17,2.42
					c-0.16,1.55-0.48,2.1-0.96,2.49c-0.63,0.51-1.35,0.51-1.87,0.51c-0.45,0-1.2,0-2.45,0.2c-1.63,4.48-2.34,8.94-2.87,12.8
					C82.78,108.74,81.34,109.53,79.29,109.45C79.29,109.45,79.29,109.45,79.29,109.45z"/>
				<path class="st2" d="M79.15,109.32c-1.53-0.06-2.6-0.6-3.01-1.53c-0.74-1.68,0.32-7.43,0.44-8.08c0.16-0.82,0.34-1.71,0.56-2.63
					c-0.29,0.12-0.62,0.17-0.94,0.16c-0.41-0.02-1.41-0.17-1.93-1.28c-0.1-0.2-0.91-2.02,0.22-3.08c0.47-0.45,2.58-1.59,4.45-2.49
					c0.35-1.14,0.69-2.13,0.99-2.9c0.61-1.58,1.01-2.17,1.71-2.52c0.52-0.26,1.15-0.38,1.87-0.35c1.45,0.06,3.92,0.83,4.78,2.13
					c0.17,0.25,0.28,0.52,0.32,0.79c0.06,0,0.11,0,0.17,0.01l0.09,0c0.69,0.04,1.56,0.4,1.94,1.33c0.22,0.54,0.28,1.36,0.17,2.42
					c-0.16,1.55-0.48,2.1-0.96,2.49c-0.63,0.51-1.35,0.51-1.87,0.51c-0.45,0-1.2,0-2.45,0.2c-1.63,4.48-2.34,8.94-2.87,12.8
					C82.64,108.6,81.2,109.4,79.15,109.32C79.15,109.32,79.15,109.32,79.15,109.32z"/>
				<path class="st2" d="M79.01,109.18c-1.53-0.06-2.6-0.6-3.01-1.53c-0.74-1.68,0.32-7.43,0.44-8.08c0.16-0.82,0.34-1.71,0.56-2.63
					c-0.29,0.12-0.62,0.17-0.94,0.16c-0.41-0.02-1.41-0.17-1.93-1.28c-0.1-0.2-0.91-2.02,0.22-3.08c0.47-0.45,2.58-1.59,4.45-2.49
					c0.35-1.14,0.69-2.13,0.99-2.9c0.61-1.58,1.01-2.17,1.71-2.52c0.52-0.26,1.15-0.38,1.87-0.35c1.45,0.06,3.92,0.83,4.78,2.13
					c0.17,0.25,0.28,0.52,0.32,0.79c0.06,0,0.11,0,0.17,0.01l0.09,0c0.69,0.04,1.56,0.4,1.94,1.33c0.22,0.54,0.28,1.36,0.17,2.42
					c-0.16,1.55-0.48,2.1-0.96,2.49c-0.63,0.51-1.35,0.51-1.87,0.51c-0.45,0-1.2,0-2.45,0.2c-1.63,4.48-2.34,8.94-2.87,12.8
					C82.5,108.47,81.06,109.27,79.01,109.18C79.01,109.18,79.01,109.18,79.01,109.18z"/>
				<path class="st2" d="M78.87,109.05c-1.53-0.06-2.6-0.6-3.01-1.53c-0.74-1.68,0.32-7.43,0.44-8.08c0.16-0.82,0.34-1.71,0.56-2.63
					c-0.29,0.12-0.62,0.17-0.94,0.16c-0.41-0.02-1.41-0.17-1.93-1.28c-0.1-0.2-0.91-2.02,0.22-3.08c0.47-0.45,2.58-1.59,4.45-2.49
					c0.35-1.14,0.69-2.13,0.99-2.9c0.61-1.58,1.01-2.17,1.71-2.52c0.52-0.26,1.15-0.38,1.87-0.35c1.45,0.06,3.92,0.83,4.78,2.13
					c0.17,0.25,0.28,0.52,0.32,0.79c0.06,0,0.11,0,0.17,0.01l0.09,0c0.69,0.04,1.56,0.4,1.94,1.33c0.22,0.54,0.28,1.36,0.17,2.42
					c-0.16,1.55-0.48,2.1-0.96,2.49c-0.63,0.51-1.35,0.51-1.87,0.51c-0.45,0-1.2,0-2.45,0.2c-1.63,4.48-2.34,8.94-2.87,12.8
					C82.36,108.34,80.92,109.13,78.87,109.05C78.87,109.05,78.87,109.05,78.87,109.05z"/>
			</g>
			<path class="st3" d="M88.47,89.01c-0.9-0.05-1.97,0.12-3.1,0.42c0.3-0.58,0.62-1.16,0.96-1.74c0.41-0.7-2.92-2.02-3.96-1.49
				c-0.37,0.19-1.17,2.32-2,5.09c-2.52,1.15-4.53,2.34-4.69,2.5c-0.2,0.18,0.13,1.54,0.37,1.44c1.32-0.53,2.51-0.96,3.58-1.32
				c-0.52,1.95-1.01,4.01-1.35,5.82c-0.64,3.33-0.85,6.5-0.55,7.17c0.25,0.57,2.74,0.57,2.83-0.09c0.55-4,1.33-9.04,3.32-14.08
				c3.16-0.67,4.32-0.35,4.51-0.5C88.69,91.99,89,89.04,88.47,89.01z"/>
		</g>
		<g id="a_9_">
			<g>
				<path class="st2" d="M64.53,111.51c-1.76,0.19-4.83-0.09-6.05-1.67c-0.32-0.42-1-1.29-0.09-7.45c0.91-6.19,1.87-6.99,2.34-7.37
					c0.63-0.52,1.51-0.84,2.63-0.97c1.2-0.13,3.55-0.05,4.74,0.74c0.26,0.18,0.53,0.38,0.79,0.61c0.14-0.03,0.29-0.05,0.44-0.07
					c0.03,0,3.31-0.34,4.37,1.31c0.46,0.72,0.36,1.34,0.19,2.46c-0.11,0.68-0.27,1.71-0.47,3.39c-0.23,1.98-0.25,3.21-0.27,4.03
					c-0.02,1.08-0.03,2.01-1.09,2.67c-0.69,0.44-1.53,0.61-2.11,0.67l0,0c-0.56,0.06-1.45,0.09-2.26-0.17
					c-0.29,0.47-0.6,0.83-0.97,1.09C66.18,111.16,65.46,111.4,64.53,111.51z"/>
				<path class="st2" d="M64.36,111.39c-1.76,0.19-4.83-0.09-6.05-1.67c-0.32-0.42-1-1.29-0.09-7.45c0.91-6.19,1.87-6.99,2.34-7.37
					c0.63-0.52,1.51-0.84,2.63-0.97c1.2-0.13,3.55-0.05,4.74,0.74c0.26,0.18,0.53,0.38,0.79,0.61c0.14-0.03,0.29-0.05,0.44-0.07
					c0.03,0,3.31-0.34,4.37,1.31c0.46,0.72,0.36,1.34,0.19,2.46c-0.11,0.68-0.27,1.71-0.47,3.39c-0.23,1.98-0.25,3.21-0.27,4.03
					c-0.02,1.08-0.03,2.01-1.09,2.67c-0.69,0.44-1.53,0.61-2.11,0.67c0,0,0,0,0,0c-0.56,0.06-1.45,0.09-2.26-0.17
					c-0.29,0.47-0.6,0.83-0.97,1.09C66.01,111.05,65.29,111.29,64.36,111.39z"/>
				<path class="st2" d="M64.19,111.27c-1.76,0.19-4.83-0.09-6.05-1.67c-0.32-0.42-1-1.29-0.09-7.45c0.91-6.19,1.87-6.99,2.34-7.37
					c0.63-0.52,1.51-0.84,2.63-0.97c1.2-0.13,3.55-0.05,4.74,0.74c0.26,0.18,0.53,0.38,0.79,0.61c0.14-0.03,0.29-0.05,0.44-0.07
					c0.03,0,3.31-0.34,4.37,1.31c0.46,0.72,0.36,1.34,0.19,2.46c-0.11,0.68-0.27,1.71-0.47,3.39c-0.23,1.98-0.25,3.21-0.27,4.03
					c-0.02,1.08-0.03,2.01-1.09,2.67c-0.69,0.44-1.53,0.61-2.11,0.67c0,0,0,0,0,0c-0.56,0.06-1.45,0.09-2.26-0.17
					c-0.29,0.47-0.6,0.83-0.97,1.09C65.84,110.93,65.12,111.17,64.19,111.27z"/>
				<path class="st2" d="M64.02,111.15c-1.76,0.19-4.83-0.09-6.05-1.67c-0.32-0.42-1-1.29-0.09-7.46c0.91-6.19,1.87-6.99,2.34-7.37
					c0.63-0.52,1.51-0.84,2.63-0.97c1.2-0.13,3.55-0.05,4.74,0.74c0.26,0.18,0.53,0.38,0.79,0.61c0.14-0.03,0.29-0.05,0.44-0.07
					c0.03,0,3.31-0.34,4.37,1.31c0.46,0.72,0.36,1.34,0.19,2.46c-0.11,0.68-0.27,1.71-0.47,3.39c-0.23,1.98-0.25,3.21-0.27,4.03
					c-0.02,1.08-0.03,2.01-1.09,2.67c-0.69,0.44-1.53,0.61-2.11,0.67c0,0,0,0,0,0c-0.56,0.06-1.45,0.09-2.26-0.17
					c-0.29,0.47-0.6,0.83-0.97,1.09C65.67,110.81,64.95,111.05,64.02,111.15z"/>
				<path class="st2" d="M63.85,111.04c-1.76,0.19-4.83-0.09-6.05-1.67c-0.32-0.42-1-1.29-0.09-7.46c0.91-6.19,1.87-6.99,2.34-7.37
					c0.63-0.52,1.51-0.84,2.63-0.97c1.2-0.13,3.55-0.05,4.74,0.74c0.26,0.18,0.53,0.38,0.79,0.61c0.14-0.03,0.29-0.05,0.44-0.07
					c0.03,0,3.31-0.34,4.37,1.31c0.46,0.72,0.36,1.34,0.19,2.46c-0.11,0.68-0.27,1.71-0.47,3.39c-0.23,1.98-0.25,3.21-0.27,4.03
					c-0.02,1.08-0.03,2.01-1.09,2.67c-0.69,0.44-1.53,0.61-2.11,0.67c0,0,0,0,0,0c-0.56,0.06-1.45,0.09-2.26-0.17
					c-0.29,0.47-0.6,0.83-0.97,1.09C65.5,110.69,64.78,110.93,63.85,111.04z"/>
				<path class="st2" d="M63.68,110.92c-1.76,0.19-4.83-0.09-6.05-1.67c-0.32-0.42-1-1.29-0.09-7.46c0.91-6.19,1.87-6.99,2.34-7.37
					c0.63-0.52,1.51-0.84,2.63-0.97c1.2-0.13,3.55-0.05,4.74,0.74c0.26,0.18,0.53,0.38,0.79,0.61c0.14-0.03,0.29-0.05,0.44-0.07
					c0.03,0,3.31-0.34,4.37,1.31c0.46,0.72,0.36,1.34,0.19,2.46c-0.11,0.68-0.27,1.71-0.47,3.39c-0.23,1.98-0.25,3.21-0.27,4.03
					c-0.02,1.08-0.03,2.01-1.09,2.67c-0.69,0.44-1.53,0.61-2.11,0.67c0,0,0,0,0,0c-0.56,0.06-1.45,0.09-2.26-0.17
					c-0.29,0.47-0.6,0.83-0.97,1.09C65.33,110.58,64.61,110.82,63.68,110.92z"/>
				<path class="st2" d="M63.52,110.8c-1.76,0.19-4.83-0.09-6.05-1.67c-0.32-0.42-1-1.29-0.09-7.46c0.91-6.19,1.87-6.99,2.34-7.37
					c0.63-0.52,1.51-0.84,2.63-0.97c1.2-0.13,3.55-0.05,4.74,0.74c0.26,0.18,0.53,0.38,0.79,0.61c0.14-0.03,0.29-0.05,0.44-0.07
					c0.03,0,3.31-0.34,4.37,1.31c0.46,0.72,0.36,1.34,0.19,2.46c-0.11,0.68-0.27,1.71-0.47,3.39c-0.23,1.98-0.25,3.21-0.27,4.03
					c-0.02,1.08-0.03,2.01-1.09,2.67c-0.69,0.44-1.53,0.61-2.11,0.67c0,0,0,0,0,0c-0.56,0.06-1.45,0.09-2.26-0.17
					c-0.29,0.47-0.6,0.83-0.97,1.09C65.16,110.46,64.45,110.7,63.52,110.8z"/>
				<path class="st2" d="M63.35,110.68c-1.76,0.19-4.83-0.09-6.05-1.67c-0.32-0.42-1-1.29-0.09-7.46c0.91-6.19,1.87-6.99,2.34-7.37
					c0.63-0.52,1.51-0.84,2.63-0.97c1.2-0.13,3.55-0.05,4.74,0.74c0.26,0.18,0.53,0.38,0.79,0.61c0.14-0.03,0.29-0.05,0.44-0.07
					c0.03,0,3.31-0.34,4.37,1.31c0.46,0.72,0.36,1.34,0.19,2.46c-0.11,0.68-0.27,1.71-0.47,3.39c-0.23,1.98-0.25,3.21-0.27,4.03
					c-0.02,1.08-0.03,2.01-1.09,2.67c-0.69,0.44-1.53,0.61-2.11,0.67c0,0,0,0,0,0c-0.56,0.06-1.45,0.09-2.26-0.17
					c-0.29,0.47-0.6,0.83-0.97,1.09C64.99,110.34,64.28,110.58,63.35,110.68z"/>
				<path class="st2" d="M63.18,110.56c-1.76,0.19-4.83-0.09-6.05-1.67c-0.32-0.42-1-1.29-0.09-7.46c0.91-6.19,1.87-6.99,2.34-7.37
					C60,93.55,60.88,93.23,62,93.1c1.2-0.13,3.55-0.05,4.74,0.74c0.26,0.18,0.53,0.38,0.79,0.61c0.14-0.03,0.29-0.05,0.44-0.07
					c0.03,0,3.31-0.34,4.37,1.31c0.46,0.72,0.36,1.34,0.19,2.46c-0.11,0.68-0.27,1.71-0.47,3.39c-0.23,1.98-0.25,3.21-0.27,4.03
					c-0.02,1.08-0.03,2.01-1.09,2.67c-0.69,0.44-1.53,0.61-2.11,0.67c0,0,0,0,0,0c-0.56,0.06-1.45,0.09-2.26-0.17
					c-0.29,0.47-0.6,0.83-0.97,1.09C64.82,110.22,64.11,110.46,63.18,110.56z"/>
				<path class="st2" d="M63.01,110.45c-1.76,0.19-4.83-0.09-6.05-1.67c-0.32-0.42-1-1.29-0.09-7.46c0.91-6.19,1.87-6.99,2.34-7.37
					c0.63-0.52,1.51-0.84,2.63-0.97c1.2-0.13,3.55-0.05,4.74,0.74c0.26,0.18,0.53,0.38,0.79,0.61c0.14-0.03,0.29-0.05,0.44-0.07
					c0.03,0,3.31-0.34,4.37,1.31c0.46,0.72,0.36,1.34,0.19,2.46c-0.11,0.68-0.27,1.71-0.47,3.39c-0.23,1.98-0.25,3.21-0.27,4.03
					c-0.02,1.08-0.03,2.01-1.09,2.67c-0.69,0.44-1.53,0.6-2.11,0.67c0,0,0,0,0,0c-0.56,0.06-1.45,0.09-2.26-0.17
					c-0.29,0.47-0.6,0.83-0.97,1.09C64.65,110.1,63.94,110.34,63.01,110.45z"/>
				<path class="st2" d="M62.84,110.33c-1.76,0.19-4.83-0.09-6.05-1.67c-0.32-0.42-1-1.29-0.09-7.46c0.91-6.19,1.87-6.99,2.34-7.37
					c0.63-0.52,1.51-0.84,2.63-0.97c1.2-0.13,3.55-0.05,4.74,0.74c0.26,0.18,0.53,0.38,0.79,0.61c0.14-0.03,0.29-0.05,0.44-0.07
					c0.03,0,3.31-0.34,4.37,1.31c0.46,0.72,0.36,1.34,0.19,2.46c-0.11,0.68-0.27,1.71-0.47,3.39c-0.23,1.98-0.25,3.21-0.27,4.03
					c-0.02,1.08-0.03,2.01-1.09,2.67c-0.69,0.44-1.53,0.6-2.11,0.67c0,0,0,0,0,0c-0.56,0.06-1.45,0.09-2.26-0.17
					c-0.29,0.47-0.6,0.83-0.97,1.09C64.48,109.99,63.77,110.23,62.84,110.33z"/>
				<path class="st2" d="M62.67,110.21c-1.76,0.19-4.83-0.09-6.05-1.67c-0.32-0.42-1-1.29-0.09-7.46c0.91-6.19,1.87-6.99,2.34-7.37
					c0.63-0.52,1.51-0.84,2.63-0.97c1.2-0.13,3.55-0.05,4.74,0.74c0.26,0.17,0.53,0.38,0.78,0.61c0.14-0.03,0.29-0.05,0.44-0.07
					c0.03,0,3.31-0.34,4.37,1.31c0.46,0.72,0.36,1.34,0.19,2.46c-0.11,0.68-0.27,1.71-0.47,3.39c-0.23,1.98-0.25,3.21-0.27,4.03
					c-0.02,1.08-0.03,2.01-1.09,2.67c-0.69,0.44-1.53,0.6-2.11,0.67c0,0,0,0,0,0c-0.56,0.06-1.45,0.09-2.26-0.17
					c-0.29,0.47-0.6,0.83-0.97,1.09C64.31,109.87,63.6,110.11,62.67,110.21z"/>
			</g>
			<path class="st3" d="M69.97,96.29c-0.27-0.43-2.61-0.67-3.12-0.14c-0.09,0.1-0.19,0.25-0.31,0.45c-0.45-0.63-1.04-1.23-1.64-1.63
				c-0.68-0.45-3.68-0.71-4.62,0.07c-1.17,0.97-2.64,11.49-1.91,12.44c0.78,1.01,4.3,1.2,5.15,0.59c1.02-0.74,2.19-5.52,2.8-7.16
				c-0.16,1.51-0.4,5.25,0,5.61c0.4,0.36,1.99,0.31,2.65-0.11c0.33-0.21-0.01-1.42,0.45-5.34C69.9,97.13,70.19,96.62,69.97,96.29z
				 M62.83,106.52c-0.49,0.42-1.12,0.16-1.21-0.12c-0.24-0.81,1.26-9.58,2.42-10.06c0.35-0.15,1.32,1.03,1.86,1.73
				C64.71,101.02,63.2,106.2,62.83,106.52z"/>
		</g>
		<g id="m_9_">
			<g>
				<path class="st2" d="M41.03,117.12c-0.03,0.01-3.32,0.65-4.71-0.81c-0.35-0.37-0.94-0.99-1.68-7.5
					c-0.75-6.64-0.31-7.2,0.12-7.74c0.51-0.64,1.41-1.08,2.83-1.38c0.67-0.14,1.41-0.24,2.02-0.26c0.29-0.01,0.9-0.03,1.51,0.15
					c0.37-0.98,0.67-1.44,1-1.74c0.55-0.52,1.34-0.88,2.35-1.1c0.15-0.03,3.32-0.68,4.8,0.54c0.28-0.12,0.6-0.22,0.96-0.3
					c0.04-0.01,4.52-0.88,5.61,1.3c0.36,0.72,0.21,1.39-0.11,2.86c-0.39,1.75-1.03,4.67-1.16,8.87c-0.03,0.81-0.61,1.8-2.18,2.13
					c-0.84,0.18-1.8,0.14-2.3,0.1c-0.22-0.02-0.42-0.04-0.61-0.07c-0.26,0.77-0.52,1.14-0.94,1.45c-0.39,0.29-0.9,0.5-1.54,0.63
					c-0.27,0.06-2.22,0.44-3.65-0.09c-0.31,1.44-0.48,2.07-1.32,2.58C41.75,116.92,41.42,117.04,41.03,117.12z"/>
				<path class="st2" d="M40.85,117.02c-0.03,0.01-3.32,0.65-4.71-0.81c-0.35-0.37-0.94-0.99-1.68-7.5
					c-0.75-6.64-0.31-7.2,0.12-7.74c0.51-0.64,1.41-1.08,2.83-1.38c0.67-0.14,1.41-0.24,2.02-0.26c0.29-0.01,0.9-0.03,1.51,0.15
					c0.37-0.98,0.67-1.44,1-1.74c0.55-0.52,1.34-0.88,2.35-1.1c0.15-0.03,3.32-0.68,4.8,0.54c0.28-0.12,0.6-0.22,0.96-0.3
					c0.04-0.01,4.52-0.88,5.61,1.3c0.36,0.72,0.21,1.39-0.11,2.86c-0.39,1.75-1.03,4.67-1.16,8.87c-0.03,0.81-0.61,1.8-2.18,2.13
					c-0.84,0.18-1.8,0.14-2.3,0.1c-0.22-0.02-0.42-0.04-0.61-0.07c-0.26,0.77-0.52,1.14-0.94,1.45c-0.39,0.29-0.9,0.5-1.54,0.63
					c-0.27,0.06-2.22,0.44-3.65-0.09c-0.31,1.44-0.48,2.07-1.32,2.58C41.56,116.82,41.24,116.94,40.85,117.02z"/>
				<path class="st2" d="M40.67,116.92c-0.03,0.01-3.32,0.65-4.71-0.81c-0.35-0.37-0.94-0.99-1.68-7.5
					c-0.75-6.64-0.31-7.2,0.12-7.74c0.51-0.64,1.41-1.08,2.83-1.38c0.67-0.14,1.41-0.24,2.02-0.26c0.29-0.01,0.9-0.03,1.51,0.15
					c0.37-0.98,0.67-1.44,1-1.74c0.55-0.52,1.34-0.88,2.35-1.1c0.15-0.03,3.32-0.68,4.8,0.54c0.28-0.12,0.6-0.22,0.96-0.3
					c0.04-0.01,4.52-0.88,5.61,1.3c0.36,0.72,0.21,1.39-0.11,2.86c-0.39,1.75-1.03,4.67-1.16,8.87c-0.03,0.81-0.61,1.8-2.18,2.13
					c-0.84,0.18-1.8,0.14-2.3,0.1c-0.22-0.02-0.42-0.04-0.61-0.07c-0.26,0.77-0.52,1.14-0.94,1.45c-0.39,0.29-0.9,0.5-1.54,0.63
					c-0.27,0.06-2.22,0.44-3.65-0.09c-0.31,1.44-0.48,2.07-1.32,2.58C41.38,116.72,41.05,116.84,40.67,116.92z"/>
				<path class="st2" d="M40.48,116.82c-0.03,0.01-3.32,0.65-4.71-0.81c-0.35-0.37-0.94-0.99-1.68-7.5
					c-0.75-6.64-0.31-7.2,0.12-7.74c0.51-0.64,1.41-1.08,2.83-1.38c0.67-0.14,1.41-0.24,2.02-0.26c0.29-0.01,0.9-0.03,1.51,0.15
					c0.37-0.98,0.67-1.44,1-1.74c0.55-0.52,1.34-0.88,2.35-1.1c0.15-0.03,3.32-0.68,4.8,0.54c0.28-0.12,0.6-0.22,0.96-0.3
					c0.04-0.01,4.52-0.88,5.61,1.3c0.36,0.72,0.21,1.39-0.11,2.86c-0.39,1.75-1.03,4.67-1.16,8.87c-0.03,0.81-0.61,1.8-2.18,2.13
					c-0.84,0.18-1.8,0.14-2.3,0.1c-0.22-0.02-0.42-0.04-0.61-0.07c-0.26,0.77-0.52,1.14-0.94,1.45c-0.39,0.29-0.9,0.5-1.54,0.63
					c-0.27,0.06-2.22,0.44-3.65-0.09c-0.31,1.44-0.48,2.07-1.32,2.58C41.19,116.62,40.87,116.74,40.48,116.82z"/>
				<path class="st2" d="M40.3,116.72c-0.03,0.01-3.32,0.65-4.71-0.81c-0.35-0.37-0.94-0.99-1.68-7.5c-0.75-6.64-0.31-7.2,0.12-7.74
					c0.51-0.64,1.41-1.08,2.83-1.38c0.67-0.14,1.41-0.24,2.02-0.26c0.29-0.01,0.9-0.03,1.51,0.15c0.37-0.98,0.67-1.44,1-1.74
					c0.55-0.52,1.34-0.88,2.35-1.1c0.15-0.03,3.32-0.68,4.8,0.54c0.28-0.12,0.6-0.22,0.96-0.3c0.04-0.01,4.52-0.88,5.61,1.3
					c0.36,0.72,0.21,1.39-0.11,2.86c-0.39,1.75-1.03,4.67-1.16,8.87c-0.03,0.81-0.61,1.8-2.18,2.13c-0.84,0.18-1.8,0.14-2.3,0.1
					c-0.22-0.02-0.42-0.04-0.61-0.07c-0.26,0.77-0.52,1.14-0.94,1.45c-0.39,0.29-0.9,0.5-1.54,0.63c-0.27,0.06-2.22,0.44-3.65-0.09
					c-0.31,1.44-0.48,2.07-1.32,2.58C41.01,116.52,40.69,116.64,40.3,116.72z"/>
				<path class="st2" d="M40.11,116.62c-0.03,0.01-3.32,0.65-4.71-0.81c-0.35-0.37-0.94-0.99-1.68-7.5
					c-0.75-6.64-0.31-7.2,0.12-7.74c0.51-0.64,1.41-1.08,2.83-1.38c0.67-0.14,1.41-0.24,2.02-0.26c0.29-0.01,0.9-0.03,1.51,0.15
					c0.37-0.98,0.67-1.44,1-1.74c0.55-0.52,1.34-0.88,2.35-1.1c0.15-0.03,3.32-0.68,4.8,0.54c0.28-0.12,0.6-0.22,0.96-0.3
					c0.04-0.01,4.52-0.88,5.61,1.3c0.36,0.72,0.21,1.39-0.11,2.86c-0.39,1.75-1.03,4.67-1.16,8.87c-0.03,0.81-0.61,1.8-2.18,2.13
					c-0.84,0.18-1.8,0.14-2.3,0.1c-0.22-0.02-0.42-0.04-0.61-0.07c-0.26,0.77-0.52,1.14-0.94,1.45c-0.39,0.29-0.9,0.5-1.54,0.63
					c-0.27,0.06-2.22,0.44-3.65-0.09c-0.31,1.44-0.48,2.07-1.32,2.58C40.82,116.42,40.5,116.54,40.11,116.62z"/>
				<path class="st2" d="M39.93,116.52c-0.03,0.01-3.32,0.65-4.71-0.81c-0.35-0.37-0.94-0.99-1.68-7.5
					c-0.75-6.64-0.31-7.2,0.12-7.74c0.51-0.64,1.41-1.08,2.83-1.38c0.67-0.14,1.41-0.24,2.02-0.26c0.29-0.01,0.9-0.03,1.51,0.15
					c0.37-0.98,0.67-1.44,1-1.74c0.55-0.52,1.34-0.88,2.35-1.1c0.15-0.03,3.32-0.68,4.8,0.54c0.28-0.12,0.6-0.22,0.96-0.3
					c0.04-0.01,4.52-0.88,5.61,1.3c0.36,0.72,0.21,1.39-0.11,2.86c-0.39,1.75-1.03,4.67-1.16,8.87c-0.03,0.81-0.61,1.8-2.18,2.13
					c-0.84,0.18-1.8,0.14-2.3,0.1c-0.22-0.02-0.42-0.04-0.61-0.07c-0.26,0.77-0.52,1.14-0.94,1.45c-0.39,0.29-0.9,0.5-1.54,0.63
					c-0.27,0.06-2.22,0.44-3.65-0.09c-0.31,1.44-0.48,2.07-1.32,2.58C40.64,116.32,40.32,116.44,39.93,116.52z"/>
				<path class="st2" d="M39.74,116.42c-0.03,0.01-3.32,0.65-4.71-0.81c-0.35-0.37-0.94-0.99-1.68-7.5
					c-0.75-6.64-0.31-7.2,0.12-7.74c0.51-0.64,1.41-1.08,2.83-1.38c0.67-0.14,1.41-0.24,2.02-0.26c0.29-0.01,0.9-0.03,1.51,0.15
					c0.37-0.98,0.67-1.44,1-1.74c0.55-0.52,1.34-0.88,2.35-1.1c0.15-0.03,3.32-0.68,4.8,0.54c0.28-0.12,0.6-0.22,0.96-0.3
					c0.04-0.01,4.52-0.88,5.61,1.3c0.36,0.72,0.21,1.39-0.11,2.86c-0.39,1.75-1.03,4.67-1.16,8.87c-0.03,0.81-0.61,1.8-2.18,2.13
					c-0.84,0.18-1.8,0.14-2.3,0.1c-0.22-0.02-0.42-0.04-0.61-0.07c-0.26,0.77-0.52,1.14-0.94,1.45c-0.39,0.29-0.9,0.5-1.54,0.63
					c-0.27,0.06-2.22,0.44-3.65-0.09c-0.31,1.44-0.48,2.07-1.32,2.58C40.46,116.22,40.13,116.34,39.74,116.42z"/>
				<path class="st2" d="M39.56,116.32c-0.03,0.01-3.32,0.65-4.71-0.81c-0.35-0.37-0.94-0.99-1.68-7.5
					c-0.75-6.64-0.31-7.2,0.12-7.74c0.51-0.64,1.41-1.08,2.83-1.38c0.67-0.14,1.41-0.24,2.02-0.26c0.29-0.01,0.9-0.03,1.51,0.15
					c0.37-0.98,0.67-1.44,1-1.74c0.55-0.52,1.34-0.88,2.35-1.1c0.15-0.03,3.32-0.68,4.8,0.54c0.28-0.12,0.6-0.22,0.96-0.3
					c0.04-0.01,4.52-0.88,5.61,1.3c0.36,0.72,0.21,1.39-0.11,2.86c-0.39,1.75-1.03,4.67-1.16,8.87c-0.03,0.81-0.61,1.8-2.18,2.13
					c-0.84,0.18-1.8,0.14-2.3,0.1c-0.22-0.02-0.42-0.04-0.61-0.07c-0.26,0.77-0.52,1.14-0.94,1.45c-0.39,0.29-0.9,0.5-1.54,0.63
					c-0.27,0.06-2.22,0.44-3.65-0.09c-0.31,1.44-0.48,2.07-1.32,2.58C40.27,116.12,39.95,116.24,39.56,116.32z"/>
				<path class="st2" d="M39.38,116.22c-0.03,0.01-3.32,0.65-4.71-0.81c-0.35-0.37-0.94-0.99-1.68-7.5
					c-0.75-6.64-0.31-7.2,0.13-7.74c0.51-0.64,1.41-1.08,2.83-1.38c0.67-0.14,1.41-0.24,2.02-0.26c0.29-0.01,0.9-0.03,1.51,0.15
					c0.37-0.98,0.67-1.44,1-1.74c0.55-0.52,1.34-0.88,2.35-1.1c0.15-0.03,3.32-0.68,4.8,0.54c0.28-0.12,0.6-0.22,0.96-0.3
					c0.04-0.01,4.52-0.88,5.61,1.3c0.36,0.72,0.21,1.39-0.11,2.86c-0.39,1.75-1.03,4.67-1.16,8.87c-0.03,0.81-0.61,1.8-2.18,2.13
					c-0.84,0.18-1.8,0.14-2.3,0.1c-0.22-0.02-0.42-0.04-0.61-0.07c-0.26,0.77-0.52,1.14-0.94,1.45c-0.39,0.29-0.9,0.5-1.54,0.63
					c-0.27,0.06-2.22,0.44-3.65-0.09c-0.31,1.44-0.48,2.07-1.32,2.58C40.09,116.02,39.76,116.14,39.38,116.22z"/>
				<path class="st2" d="M39.19,116.12c-0.03,0.01-3.32,0.65-4.71-0.81c-0.35-0.37-0.94-0.99-1.68-7.5
					c-0.75-6.64-0.31-7.2,0.13-7.74c0.51-0.64,1.41-1.08,2.83-1.38c0.67-0.14,1.41-0.24,2.02-0.26c0.29-0.01,0.9-0.03,1.51,0.15
					c0.37-0.98,0.67-1.44,1-1.74c0.55-0.52,1.34-0.88,2.35-1.1c0.15-0.03,3.32-0.68,4.8,0.54c0.28-0.12,0.6-0.22,0.96-0.3
					c0.04-0.01,4.52-0.88,5.61,1.3c0.36,0.72,0.21,1.39-0.11,2.86c-0.39,1.75-1.03,4.67-1.16,8.87c-0.03,0.81-0.61,1.8-2.18,2.13
					c-0.84,0.18-1.8,0.14-2.3,0.1c-0.22-0.02-0.42-0.04-0.61-0.07c-0.26,0.77-0.52,1.14-0.94,1.45c-0.39,0.29-0.9,0.5-1.54,0.63
					c-0.27,0.06-2.22,0.44-3.65-0.09c-0.31,1.44-0.48,2.07-1.32,2.58C39.9,115.92,39.58,116.04,39.19,116.12z"/>
				<path class="st2" d="M39.01,116.02c-0.03,0.01-3.32,0.65-4.71-0.81c-0.35-0.37-0.94-0.99-1.68-7.5
					c-0.75-6.64-0.31-7.2,0.13-7.74c0.51-0.64,1.41-1.08,2.83-1.38c0.67-0.14,1.41-0.24,2.02-0.26c0.29-0.01,0.9-0.03,1.51,0.15
					c0.37-0.98,0.67-1.44,1-1.74c0.55-0.52,1.34-0.88,2.35-1.1c0.15-0.03,3.32-0.68,4.8,0.54c0.28-0.12,0.6-0.22,0.96-0.3
					c0.05-0.01,4.52-0.88,5.61,1.3c0.36,0.72,0.21,1.39-0.11,2.86c-0.39,1.75-1.03,4.67-1.16,8.87c-0.03,0.81-0.61,1.8-2.18,2.13
					c-0.84,0.18-1.8,0.14-2.3,0.1c-0.22-0.02-0.42-0.04-0.61-0.07c-0.26,0.77-0.52,1.14-0.94,1.45c-0.39,0.29-0.9,0.5-1.54,0.63
					c-0.27,0.06-2.22,0.44-3.65-0.09c-0.31,1.44-0.48,2.07-1.32,2.58C39.72,115.82,39.4,115.94,39.01,116.02z"/>
			</g>
			<path class="st3" d="M34.46,101.01c-0.55,0.69,0.75,12.24,1.47,12.99c0.42,0.44,2.55,0.35,2.9,0.14
				c0.35-0.21,0.43-2.67,2.83-11.04c-0.06,2.22,0.01,7.77,0.35,8.16c0.34,0.39,2.65,0.26,3.17-0.13c0.52-0.38,1.58-6.97,2.27-8.49
				c-0.27,1.77-0.42,6.16-0.21,6.42c0.21,0.27,3.19,0.47,3.21-0.15c0.21-6.78,1.72-10.39,1.45-10.95c-0.28-0.55-3.3-0.54-3.94-0.01
				c-0.64,0.53-2.56,5.6-2.94,6.65c0.41-2.62,1.13-6.44,0.81-7.02c-0.26-0.46-3.3-0.45-4.18,0.38c-0.89,0.83-2.9,10.03-3.18,11.07
				c-0.24-5.48,0.29-8.33,0.06-8.73C38.28,99.94,34.95,100.4,34.46,101.01z"/>
		</g>
	</g>
</g>
</svg>
